<svg width="48" height="48" viewBox="0 0 48 48" fill="none" xmlns="http://www.w3.org/2000/svg">
<rect width="48" height="48" rx="12" fill="#FFEB3B"/>
<path d="M8.99997 18H38.9999C39.552 18 39.9999 17.552 39.9999 17C39.9999 16.448 39.5519 16.0001 38.9999 16.0001H8.99997C8.44795 16.0001 8 16.4481 8 17C8 17.552 8.44803 18 8.99997 18Z" fill="black"/>
<path d="M38.9999 23.0001H8.99997C8.44795 23.0001 8 23.4481 8 24C8 24.552 8.44803 25 8.99997 25H38.9999C39.552 25 39.9999 24.552 39.9999 24C39.9999 23.4481 39.552 23.0001 38.9999 23.0001Z" fill="black"/>
<path d="M39 30H19C18.448 30 18 30.448 18 31C18 31.552 18.448 31.9999 19 31.9999H39C39.552 31.9999 39.9999 31.5519 39.9999 31C40 30.448 39.552 30 39 30Z" fill="black"/>
</svg>
