<svg width="48" height="48" viewBox="0 0 48 48" fill="none" xmlns="http://www.w3.org/2000/svg">
<path d="M12.2929 14.1005L33.5061 35.3137C33.8964 35.7041 34.53 35.704 34.9203 35.3137C35.3106 34.9234 35.3105 34.2898 34.9203 33.8995L13.7071 12.6864C13.3167 12.296 12.6832 12.2961 12.2929 12.6864C11.9026 13.0766 11.9026 13.7103 12.2929 14.1005Z" fill="black"/>
<path d="M33.9203 12.6864L12.7071 33.8995C12.3167 34.2899 12.3168 34.9234 12.7071 35.3137C13.0974 35.704 13.731 35.704 14.1212 35.3137L35.3344 14.1005C35.7248 13.7102 35.7247 13.0766 35.3344 12.6864C34.9442 12.2961 34.3106 12.296 33.9203 12.6864Z" fill="black"/>
</svg>
