<svg width="48" height="48" viewBox="0 0 48 48" fill="none" xmlns="http://www.w3.org/2000/svg">
<path d="M12.5858 14.8284L33.7989 36.0416C34.1893 36.4319 34.9813 36.2735 35.5667 35.688C36.1522 35.1025 36.3105 34.3105 35.9203 33.9203L14.7071 12.7071C14.3167 12.3167 13.5248 12.4752 12.9393 13.0607C12.3539 13.6461 12.1955 14.4381 12.5858 14.8284Z" fill="black"/>
<path d="M33.9203 13.0797L12.7071 34.2929C12.3167 34.6833 12.4752 35.4752 13.0607 36.0607C13.6461 36.6461 14.4381 36.8045 14.8284 36.4142L36.0416 15.2011C36.4319 14.8107 36.2735 14.0187 35.688 13.4333C35.1026 12.8479 34.3106 12.6894 33.9203 13.0797Z" fill="black"/>
</svg>
