<svg width="216" height="80" viewBox="0 0 216 80" fill="none" xmlns="http://www.w3.org/2000/svg">
<path d="M86.8591 52.3179L78.0406 38.9762L86.783 25.5583H80.3592L74.5056 34.6809L68.7279 25.5583H62.076L70.8185 38.8621L62 52.3179H68.4998L74.3535 43.1573L80.2452 52.3179H86.8591Z" fill="black"/>
<path d="M98.0885 32.2102C92.957 32.2102 90.0302 35.023 89.4981 38.406H94.6675C94.9716 37.3797 95.9599 36.5054 97.8604 36.5054C99.7229 36.5054 101.091 37.4557 101.091 39.2802V40.1925H96.7961C91.7787 40.1925 88.7379 42.5111 88.7379 46.5403C88.7379 50.4934 91.7787 52.774 95.5798 52.774C98.1265 52.774 100.179 51.7858 101.395 50.1893V52.3179H106.527V39.4703C106.527 34.6809 103.144 32.2102 98.0885 32.2102ZM97.1002 48.4788C95.3897 48.4788 94.2874 47.6426 94.2874 46.2742C94.2874 44.8678 95.5038 44.0316 97.2142 44.0316H101.091V44.9058C101.091 47.1865 99.2288 48.4788 97.1002 48.4788Z" fill="black"/>
<path d="M121.905 33.0086C119.168 33.0086 116.926 33.9968 115.481 36.0114C115.861 32.3244 117.344 30.4998 121.069 29.9297L128.557 28.8274V24L120.537 25.3304C112.782 26.6227 110.388 31.7922 110.388 40.4207C110.388 48.1748 114.151 52.7741 120.803 52.7741C126.77 52.7741 130.457 48.2129 130.457 42.7393C130.457 36.8476 127.036 33.0086 121.905 33.0086ZM120.537 48.1368C117.648 48.1368 116.051 45.8182 116.051 42.7013C116.051 39.6984 117.724 37.5318 120.575 37.5318C123.349 37.5318 124.908 39.7745 124.908 42.7393C124.908 45.7041 123.387 48.1368 120.537 48.1368Z" fill="black"/>
<path d="M145.26 32.2102C142.371 32.2102 140.508 33.4646 139.52 34.947V32.6663H134.198V59.578H139.748V50.4174C140.736 51.7858 142.599 52.774 145.108 52.774C149.935 52.774 153.774 48.973 153.774 42.5111C153.774 35.9353 149.935 32.2102 145.26 32.2102ZM143.929 47.9847C141.344 47.9847 139.634 45.8941 139.634 42.5871V42.4351C139.634 39.1282 141.344 36.9996 143.929 36.9996C146.514 36.9996 148.186 39.1662 148.186 42.5111C148.186 45.8561 146.514 47.9847 143.929 47.9847Z" fill="black"/>
</svg>
