<svg width="216" height="80" viewBox="0 0 216 80" fill="none" xmlns="http://www.w3.org/2000/svg">
<path d="M128.635 30.7172C122.348 30.7474 117.227 35.9147 117.256 42.3486C117.284 48.7825 122.457 53.9012 128.744 53.8724C135.031 53.8435 140.153 48.6749 140.123 42.2436C140.093 35.8124 134.922 30.6897 128.632 30.7199L128.635 30.7172ZM128.722 49.1539C126.939 49.1644 125.226 48.4649 123.96 47.2114C122.693 45.958 121.991 44.2504 121.971 42.468C121.952 40.6857 122.66 38.9729 123.914 37.7063C125.167 36.4397 126.875 35.7375 128.657 35.7179C130.44 35.6982 132.152 36.4069 133.419 37.6604C134.685 38.9138 135.388 40.6214 135.407 42.4037C135.426 45.9803 132.297 49.1369 128.722 49.1552V49.1539ZM154.105 36.1707C150.817 36.1864 148.257 38.9138 148.272 42.2016L148.325 53.2069L143.322 53.2306L143.221 31.3604L148.224 31.3367L148.241 34.7663C148.241 34.7663 150.367 31.3275 154.656 31.3079L156.087 31.3L156.111 36.1589L154.105 36.1707ZM104.196 31.5467L107.984 46.5381L111.916 31.51L116.92 31.4877L110.73 53.3999L105.871 53.4222L101.941 38.1473L98.1534 53.4576L93.2932 53.4799L86.7596 31.6399L91.6185 31.6176L95.976 46.6064L99.4804 31.5809L104.196 31.5467ZM170.707 41.2409C174.126 39.2249 176.541 35.496 176.521 31.2081L171.518 31.2317C171.537 34.9487 168.547 37.9649 164.974 37.978L164.259 37.9806L164.18 20.6858L159.177 20.7094L159.33 53.1544L164.331 53.1321L164.284 42.8421L164.855 42.8395C165.427 42.8369 166 43.1204 166.146 43.5482L173.194 53.0901L179.055 53.0639L170.707 41.2409Z" fill="black"/>
<path d="M75.1781 30.9692C69.7483 30.9955 65.6192 34.5878 64.0744 40.3116C61.4822 36.3216 59.4596 31.758 58.2994 27.9045L52.5834 27.9308L52.6543 43.081C52.6606 44.5214 52.0947 45.9054 51.0809 46.9288C50.0672 47.9521 48.6886 48.5311 47.2481 48.5384C45.8077 48.5446 44.4237 47.9787 43.4003 46.965C42.377 45.9512 41.798 44.5726 41.7908 43.1322L41.7186 27.982L36 28.0082L36.0709 43.1584C36.1011 49.4453 41.124 54.4275 47.2717 54.3974C53.4195 54.3672 58.3991 49.3416 58.3703 43.0534L58.3571 40.4809C59.5095 42.7607 60.9506 45.1836 62.5348 47.3217L59.0396 64.06L64.8986 64.0337L67.4186 51.8721C69.7116 53.2922 72.2749 54.1362 75.2884 54.1217C81.5779 54.0916 86.7006 48.9242 86.6678 42.3486C86.6438 39.319 85.4224 36.4219 83.27 34.2897C81.1176 32.1575 78.2091 30.9633 75.1794 30.9679L75.1781 30.9692ZM75.2595 48.264C72.9731 48.2745 70.6828 47.2849 68.8177 45.7204L69.3782 43.4327V43.3015C69.7982 40.8681 71.0608 36.718 75.3501 36.6996C76.8624 36.6971 78.3146 37.292 79.3905 38.3549C80.4664 39.4178 81.079 40.8626 81.0949 42.3749C80.9663 45.6627 78.2638 48.2483 75.2608 48.2627L75.2595 48.264Z" fill="black"/>
</svg>
