<svg width="216" height="80" viewBox="0 0 216 80" fill="none" xmlns="http://www.w3.org/2000/svg">
<path d="M105.779 53.1467H100.061V40.6027C100.061 38.8676 99.72 37.5733 99.0373 36.72C98.3831 35.8667 97.4729 35.44 96.3067 35.44C95.5956 35.44 94.856 35.6391 94.088 36.0373C93.3484 36.4356 92.6658 36.9902 92.04 37.7013C91.4427 38.384 91.0018 39.1804 90.7173 40.0907V53.1467H85V22H90.7173V34.928C91.5422 33.5058 92.6658 32.3964 94.088 31.6C95.5102 30.8036 97.0604 30.4053 98.7387 30.4053C100.644 30.4053 102.109 30.832 103.133 31.6853C104.157 32.5387 104.854 33.6338 105.224 34.9707C105.594 36.3076 105.779 37.7156 105.779 39.1947V53.1467ZM131.529 53.1467H125.811V40.6027C125.811 38.8676 125.47 37.5733 124.787 36.72C124.133 35.8667 123.223 35.44 122.057 35.44C121.346 35.44 120.606 35.6391 119.838 36.0373C119.098 36.4356 118.416 36.9902 117.79 37.7013C117.193 38.384 116.752 39.1804 116.467 40.0907V53.1467H110.75V22H116.467V34.928C117.292 33.5058 118.416 32.3964 119.838 31.6C121.26 30.8036 122.81 30.4053 124.489 30.4053C126.394 30.4053 127.859 30.832 128.883 31.6853C129.907 32.5387 130.604 33.6338 130.974 34.9707C131.344 36.3076 131.529 37.7156 131.529 39.1947V53.1467Z" fill="black"/>
</svg>
