<svg width="216" height="80" viewBox="0 0 216 80" fill="none" xmlns="http://www.w3.org/2000/svg">
<path d="M193.739 58.7369C193.741 58.7369 193.742 58.7369 193.746 58.7369C194.18 58.7369 194.537 58.3757 194.537 57.9369C194.537 57.9214 194.537 57.9062 194.535 57.8907C194.535 57.2907 194.178 57.004 193.443 57.004H192.257V60.1459H192.704V58.7763H193.252L193.263 58.7929L194.115 60.1459H194.592L193.678 58.7456L193.739 58.7369ZM193.221 58.4221H192.704V57.3601H193.361C193.699 57.3601 194.084 57.4159 194.084 57.8648C194.084 58.3809 193.695 58.4221 193.219 58.4221H193.221ZM20 24.3826H26.5826V48.6538H38.7694V54.8028H20V24.3826ZM41.6796 34.177H48.0035V54.7914H41.6796V34.177ZM44.8415 23.9285C46.8538 23.9289 48.5094 25.605 48.5094 27.6418C48.5094 29.6789 46.8534 31.3552 44.8409 31.3552C42.8285 31.3552 41.1724 29.6789 41.1724 27.6418C41.1724 25.6048 42.8285 23.9285 44.8409 23.9285C44.8411 23.9285 44.8413 23.9285 44.8415 23.9285ZM74.457 24.3779H80.7809V42.5579L87.948 34.1677H95.7014L87.4013 43.7115L95.5267 54.8001H87.5784L80.8653 44.6102H80.7822V54.7988H74.4583L74.457 24.3779ZM51.51 34.1791H57.5829V36.9962H57.6691C58.9033 34.8558 61.2103 33.5729 63.6571 33.6663C70.0699 33.6663 71.2503 37.9371 71.2503 43.4854V54.7901H64.9264V44.7677C64.9264 42.3753 64.883 39.3 61.6328 39.3C58.3457 39.3 57.8385 41.9051 57.8385 44.5936V54.7876H51.5146L51.51 34.1791Z" fill="black"/>
<path d="M109.028 42.0968C109.029 42.0667 109.029 42.0363 109.029 42.0062C109.029 39.9007 107.318 38.1682 105.237 38.1682C105.207 38.1682 105.176 38.1686 105.145 38.1694C102.861 38.0254 100.857 39.7873 100.677 42.0968H109.028ZM114.385 51.2317C112.258 53.8423 109.08 55.3497 105.737 55.3333C99.4131 55.3333 94.3501 51.0603 94.3501 44.4438C94.3501 37.8273 99.4126 33.5565 105.737 33.5565C111.648 33.5565 115.355 37.8239 115.355 44.4438V46.4509H100.677C101.053 48.7937 103.098 50.5162 105.443 50.4644C107.27 50.4528 108.971 49.5031 109.956 47.9452L114.385 51.2317ZM128.536 39.1701C125.374 39.1701 123.477 41.3073 123.477 44.4212C123.477 47.5352 125.373 49.6741 128.536 49.6741C131.699 49.6741 133.6 47.5404 133.6 44.4212C133.6 41.3019 131.702 39.1701 128.536 39.1701ZM139.422 54.7978H133.6V52.064H133.513C132.034 54.078 129.706 55.2801 127.226 55.3099C121.15 55.3099 117.148 50.8709 117.148 44.5938C117.148 38.8289 120.69 33.5351 126.512 33.5351C129.129 33.5351 131.574 34.2599 133.008 36.2689H133.091V24.386H139.421L139.422 54.7978ZM182.114 54.8098H175.79V44.7853C175.79 42.3948 175.748 39.3175 172.501 39.3175C169.207 39.3175 168.703 41.9219 168.703 44.6112V54.809H162.379V34.1946H168.45V37.0117H168.535C169.771 34.8724 172.078 33.5899 174.525 33.6819C180.934 33.6819 182.116 37.9493 182.116 43.501L182.114 54.8098ZM155.244 31.3766C155.243 31.3766 155.243 31.3766 155.243 31.3766C153.23 31.3766 151.573 29.7 151.573 27.6621C151.573 25.6243 153.23 23.9474 155.243 23.9474C157.256 23.9474 158.913 25.6239 158.913 27.6613C158.913 27.6615 158.913 27.6617 158.913 27.6621C158.913 29.6996 157.257 31.3764 155.244 31.3766ZM158.406 54.8098H152.075V34.1946H158.406V54.8098ZM185.266 18.003H148.897C147.19 17.9835 145.769 19.3887 145.748 21.1167V58.083C145.768 59.812 147.189 61.2188 148.897 61.2002H185.266C186.979 61.2221 188.405 59.8155 188.427 58.083V21.1142C188.405 19.3825 186.977 17.9775 185.266 18.0003V18.003ZM193.286 55.6146C191.699 55.6301 190.403 56.9549 190.403 58.5603C190.403 60.1765 191.717 61.5063 193.313 61.5063C194.91 61.5063 196.224 60.1765 196.224 58.5603C196.224 56.9549 194.928 55.6301 193.341 55.6146H193.286ZM193.286 61.1689C193.271 61.1691 193.257 61.1693 193.242 61.1693C191.843 61.1693 190.692 60.0033 190.692 58.5862C190.692 57.1692 191.843 56.003 193.242 56.003C194.626 56.003 195.771 57.1425 195.794 58.5431V58.5865C195.823 59.9726 194.721 61.1376 193.353 61.1676H193.286" fill="black"/>
</svg>
