<svg width="216" height="80" viewBox="0 0 216 80" fill="none" xmlns="http://www.w3.org/2000/svg">
<path d="M25.47 18.19C21.7039 19.8269 17.5638 24.4511 16.2562 30.2555C14.6003 37.61 21.4915 40.72 22.0567 39.7002C22.7219 38.5021 20.8219 38.0969 20.4307 34.281C19.9253 29.3526 22.1319 23.8456 24.9091 21.4293C25.4253 20.9803 25.4007 21.6052 25.4007 22.7609C25.4007 24.8277 25.2907 43.381 25.2907 47.2531C25.2907 52.4925 25.0823 54.147 24.708 55.7819C24.3287 57.4387 23.719 58.5582 24.181 58.9894C24.6972 59.4717 26.9012 58.3244 28.1771 56.4753C29.7071 54.2577 30.2427 51.5945 30.3389 48.7022C30.455 45.2157 30.4501 39.6833 30.455 36.5277C30.4597 33.6335 30.502 25.1587 30.4062 20.0639C30.3827 18.8143 27.0449 17.5033 25.4698 18.1885L25.47 18.19ZM159.202 42.7102C159.08 45.434 158.499 47.5631 157.779 49.0648C156.384 51.9721 153.488 52.8749 152.259 48.6955C151.589 46.4174 151.558 42.6126 152.04 39.4335C152.53 36.1949 153.899 33.749 156.166 33.9696C158.401 34.1877 159.448 37.179 159.202 42.7101V42.7102ZM121.51 59.6096C121.48 64.1355 120.794 68.1037 119.323 69.2563C117.237 70.8905 114.432 69.6646 115.013 66.3621C115.527 63.4396 117.957 60.4551 121.516 56.8084C121.516 56.8084 121.524 57.64 121.511 59.6096H121.51ZM120.941 42.6838C120.813 45.1647 120.194 47.657 119.518 49.0652C118.123 51.9724 115.207 52.8813 113.998 48.6959C113.172 45.8362 113.37 42.1351 113.779 39.803C114.309 36.7773 115.595 33.9703 117.905 33.9703C120.15 33.9703 121.257 36.5281 120.941 42.684V42.6838ZM99.1061 42.6459C98.9692 45.2734 98.4755 47.4698 97.6833 49.0652C96.25 51.9524 93.4143 52.8681 92.1637 48.6959C91.2622 45.6874 91.5691 41.5852 91.9441 39.3692C92.5007 36.0808 93.8944 33.7493 96.07 33.9703C98.3049 34.197 99.3913 37.1793 99.1061 42.6461V42.6459ZM199.169 45.7149C198.622 45.7149 198.373 46.2996 198.167 47.2839C197.451 50.7061 196.699 51.4788 195.73 51.4788C194.646 51.4788 193.673 49.7843 193.423 46.3921C193.226 43.7248 193.258 38.8142 193.509 33.9295C193.561 32.9258 193.294 31.9328 190.701 30.9549C189.586 30.5343 187.964 29.9149 187.157 31.9386C184.876 37.6559 183.983 42.1949 183.773 44.0388C183.762 44.1343 183.649 44.1538 183.63 43.9308C183.496 42.454 183.197 39.7702 183.159 34.1317C183.152 33.0316 182.928 32.0952 181.758 31.3286C181 30.8311 178.695 29.9513 177.866 30.998C177.147 31.854 176.314 34.1578 175.449 36.8886C174.746 39.1081 174.257 40.6096 174.257 40.6096C174.257 40.6096 174.266 34.6209 174.274 32.3492C174.278 31.4922 173.712 31.2067 173.541 31.1549C172.773 30.9234 171.259 30.5365 170.616 30.5365C169.824 30.5365 169.629 30.9967 169.629 31.6672C169.629 31.755 169.504 39.5519 169.504 45.0039C169.504 45.2407 169.504 45.4991 169.507 45.7735C169.068 48.2793 167.646 51.6809 166.099 51.6809C164.551 51.6809 163.82 50.2588 163.82 43.7592C163.82 39.9675 163.93 38.3188 163.984 35.5764C164.015 33.9968 164.075 32.7838 164.072 32.5085C164.06 31.6644 162.655 31.239 162.001 31.0817C161.343 30.9232 160.772 30.8617 160.326 30.8881C159.695 30.9251 159.249 31.3551 159.249 31.9464C159.249 32.2635 159.252 32.8665 159.252 32.8665C158.439 31.54 157.131 30.6167 156.261 30.3492C153.918 29.6266 151.473 30.2668 149.629 32.9465C148.163 35.0757 147.279 37.4872 146.932 40.9518C146.677 43.4848 146.76 46.0533 147.212 48.2256C146.666 50.6767 145.653 51.6809 144.543 51.6809C142.931 51.6809 141.763 48.9499 141.899 44.2268C141.988 41.1202 142.587 38.9401 143.241 35.786C143.52 34.4415 143.294 33.7376 142.725 33.0629C142.203 32.4442 141.092 32.1281 139.495 32.5169C138.357 32.7941 136.73 33.0922 135.242 33.3212C135.242 33.3212 135.331 32.9491 135.405 32.2931C135.792 28.8529 132.192 29.132 131.043 30.2308C130.357 30.8868 129.891 31.6606 129.714 33.0517C129.433 35.2593 131.167 36.3006 131.167 36.3006C130.598 39.0047 129.203 42.5372 127.763 45.0912C126.992 46.4595 126.402 47.4735 125.641 48.5513C125.638 48.15 125.636 47.7486 125.634 47.3492C125.617 41.664 125.69 37.1896 125.722 35.5769C125.753 33.9974 125.814 32.8165 125.811 32.5413C125.802 31.9238 125.455 31.6907 124.733 31.3955C124.094 31.1344 123.339 30.9536 122.556 30.8906C121.567 30.8105 120.972 31.355 120.987 31.9988C120.99 32.1203 120.99 32.8667 120.99 32.8667C120.177 31.5402 118.87 30.617 118 30.3494C115.656 29.6271 113.211 30.2674 111.367 32.9468C109.902 35.0759 108.942 38.0637 108.67 40.9257C108.417 43.5931 108.463 45.86 108.809 47.7695C108.436 49.6816 107.365 51.6811 106.154 51.6811C104.605 51.6811 103.724 50.259 103.724 43.7594C103.724 39.9677 103.833 38.319 103.887 35.5769C103.919 33.9974 103.979 32.784 103.976 32.5091C103.964 31.665 102.558 31.2395 101.904 31.0819C101.22 30.9176 100.629 30.8572 100.175 30.8919C99.5766 30.9382 99.1557 31.4949 99.1557 31.91V32.8667C98.3427 31.5402 97.0352 30.617 96.1652 30.3494C93.822 29.6271 91.3905 30.2777 89.5326 32.9468C88.321 34.6871 87.3401 36.6166 86.8353 40.8878C86.6894 42.122 86.625 43.2779 86.6334 44.3582C86.1502 47.4261 84.0164 50.9621 82.2709 50.9621C81.2495 50.9621 80.2767 48.905 80.2767 44.5209C80.2767 38.6811 80.6248 30.3664 80.6836 29.5651C80.6836 29.5651 82.8891 29.5262 83.3162 29.521C84.4162 29.5085 85.4126 29.5355 86.8777 29.4577C87.6127 29.4187 88.3207 26.6802 87.5622 26.3413C87.2184 26.1879 84.7888 26.0535 83.8256 26.0322C83.0157 26.0132 80.7611 25.8399 80.7611 25.8399C80.7611 25.8399 80.9633 20.321 81.0104 19.738C81.0503 19.2521 80.4449 19.002 80.0977 18.8502C79.2534 18.4794 78.4981 18.3019 77.6027 18.1102C76.3657 17.8452 75.8046 18.1044 75.6949 19.1885C75.5299 20.8337 75.4444 25.6525 75.4444 25.6525C74.5366 25.6525 71.4358 25.4682 70.5278 25.4682C69.6842 25.4682 68.7736 29.2355 69.94 29.2818C71.2819 29.3358 73.6205 29.3824 75.1709 29.431C75.1709 29.431 75.1018 37.8826 75.1018 40.4919C75.1018 40.7695 75.1042 41.0368 75.1046 41.2962C74.2514 45.9141 71.246 48.4085 71.246 48.4085C71.8914 45.3535 70.573 43.0594 68.1982 41.1174C67.3233 40.4018 65.596 39.047 63.6635 37.5624C63.6635 37.5624 64.7828 36.4169 65.7754 34.1125C66.4787 32.4802 66.5091 30.6122 64.7828 30.2003C61.9304 29.5191 59.5785 31.6943 58.877 34.0164C58.3335 35.8153 58.6234 37.1501 59.6881 38.5368C59.7659 38.6381 59.8501 38.7416 59.9371 38.8458C59.2932 40.1344 58.4087 41.8693 57.6595 43.2147C55.5802 46.9502 54.0094 49.9048 52.8223 49.9048C51.8733 49.9048 51.886 46.9051 51.886 44.0965C51.886 41.6753 52.0582 38.0351 52.1957 34.2663C52.2412 33.0198 51.641 32.3098 50.6348 31.6666C50.0235 31.2759 48.7187 30.5077 47.963 30.5077C46.8319 30.5077 43.5686 30.6675 40.4852 39.9286C40.0966 41.0958 39.3332 43.2228 39.3332 43.2228L39.3989 32.086C39.3989 31.8249 39.2649 31.5724 38.9583 31.3997C38.4387 31.1068 37.0509 30.5077 35.8169 30.5077C35.229 30.5077 34.9356 30.7916 34.9356 31.3576L34.828 48.7812C34.828 50.1051 34.8612 51.6495 34.9873 52.325C35.1129 53.0013 35.3163 53.5515 35.5683 53.8789C35.82 54.2056 36.111 54.4548 36.5909 54.5577C37.0376 54.6532 39.4834 54.9793 39.6106 54.0088C39.7629 52.8457 39.7687 51.5877 41.053 46.8958C43.0524 39.5912 45.6593 36.0272 46.8848 34.7615C47.099 34.5402 47.3437 34.527 47.3319 34.8891C47.2796 36.4906 47.0956 40.4923 46.9718 43.892C46.6398 52.99 48.2338 54.6763 50.5117 54.6763C52.2544 54.6763 54.711 52.8784 57.3444 48.3272C58.9862 45.4909 60.5802 42.7099 61.7255 40.7055C62.5236 41.4726 63.4193 42.2983 64.3143 43.1804C66.3943 45.2302 67.0772 47.1779 66.6241 49.0256C66.2776 50.4382 64.9725 51.8939 62.6497 50.479C61.9726 50.0662 61.6837 49.7473 61.003 49.2819C60.6372 49.0319 60.0788 48.9572 59.744 49.2191C58.8744 49.8999 58.377 50.7659 58.093 51.838C57.8167 52.8813 58.8229 53.4328 59.866 53.9151C60.7642 54.3303 62.6946 54.7065 63.9257 54.7493C68.7224 54.9159 72.5649 52.3445 75.2398 45.7117C75.7186 51.44 77.7565 54.6814 81.297 54.6814C83.6641 54.6814 86.0374 51.5045 87.0752 48.3792C87.3731 49.6532 87.8141 50.761 88.3837 51.6979C91.1119 56.1861 96.4044 55.2201 99.063 51.4089C99.8849 50.2312 100.01 49.808 100.01 49.808C100.398 53.4068 103.189 54.6641 104.787 54.6641C106.577 54.6641 108.425 53.7856 109.72 50.7579C109.872 51.0865 110.037 51.4003 110.218 51.6978C112.946 56.186 118.239 55.22 120.897 51.4088C121.023 51.23 121.132 51.0678 121.227 50.9222L121.305 53.2861C121.305 53.2861 119.788 54.7307 118.857 55.6169C114.76 59.5202 111.644 62.4815 111.415 65.9301C111.121 70.3274 114.555 71.9616 117.154 72.1758C119.913 72.4031 122.276 70.8204 123.729 68.6053C125.006 66.6556 125.843 62.4594 125.781 58.3149C125.757 56.6553 125.716 54.545 125.685 52.2831C127.125 50.5466 128.748 48.3518 130.242 45.7828C131.87 42.983 133.615 39.2233 134.508 36.2972C134.508 36.2972 136.024 36.3107 137.642 36.2008C138.16 36.1657 138.308 36.2753 138.212 36.6693C138.097 37.1452 136.168 44.8688 137.928 50.014C139.133 53.5363 141.849 54.6695 143.459 54.6695C145.344 54.6695 147.147 53.1915 148.113 50.9968C148.23 51.2415 148.352 51.4782 148.484 51.6968C151.213 56.1851 156.487 55.2132 159.164 51.4078C159.768 50.5492 160.111 49.807 160.111 49.807C160.685 53.5314 163.475 54.682 165.073 54.682C166.737 54.682 168.316 53.9736 169.598 50.8251C169.652 52.2113 169.736 53.3449 169.869 53.7023C169.95 53.9208 170.423 54.1952 170.767 54.3277C172.29 54.9139 173.843 54.6367 174.417 54.5161C174.815 54.4325 175.125 54.101 175.168 53.2449C175.279 50.9971 175.211 47.2205 175.867 44.4138C176.969 39.7033 177.996 37.8762 178.484 36.9716C178.757 36.4648 179.064 36.3812 179.076 36.9175C179.099 38.0029 179.151 41.19 179.577 45.4721C179.891 48.6214 180.309 50.4829 180.631 51.072C181.55 52.7568 182.684 52.8365 183.607 52.8365C184.195 52.8365 185.423 52.668 185.313 51.5959C185.26 51.0733 185.354 47.8437 186.44 43.203C187.149 40.1725 188.331 37.4343 188.758 36.4332C188.915 36.0641 188.988 36.3551 188.986 36.4118C188.896 38.4988 188.694 45.3252 189.513 49.0587C190.623 54.1164 193.834 54.6824 194.953 54.6824C197.342 54.6824 199.296 52.7957 199.954 47.8312C200.112 46.6365 199.878 45.714 199.174 45.714" fill="black"/>
</svg>
