<svg width="162" height="162" viewBox="0 0 162 162" fill="none" xmlns="http://www.w3.org/2000/svg">
<g clip-path="url(#clip0)">
<path d="M157.627 74.6896L87.4818 4.5497C83.4451 0.509475 76.8929 0.509475 72.851 4.5497L58.2854 19.1153L76.7625 37.5925C81.0566 36.1417 85.9799 37.1148 89.4032 40.538C92.8423 43.9824 93.8083 48.9481 92.3223 53.2563L110.13 71.0636C114.438 69.5794 119.409 70.5401 122.85 73.9862C127.658 78.7933 127.658 86.5846 122.85 91.3952C118.039 96.2057 110.248 96.2057 105.435 91.3952C101.818 87.7745 100.925 82.4615 102.756 78.0053L86.1492 61.3984L86.1474 105.101C87.3196 105.682 88.4266 106.456 89.4032 107.429C94.212 112.236 94.212 120.028 89.4032 124.842C84.5926 129.65 76.7978 129.65 71.9943 124.842C67.1855 120.028 67.1855 112.236 71.9943 107.429C73.1824 106.243 74.5573 105.346 76.0239 104.743V60.6334C74.5573 60.0341 73.1841 59.1421 71.9943 57.947C68.3507 54.3086 67.4746 48.9622 69.3413 44.4883L51.1286 26.2721L3.03192 74.3652C-1.01007 78.409 -1.01007 84.9611 3.03192 89.0013L73.1771 159.143C77.2155 163.183 83.7659 163.183 87.8097 159.143L157.627 89.3275C161.667 85.2855 161.667 78.7298 157.627 74.6896Z" fill="black"/>
</g>
<defs>
<clipPath id="clip0">
<rect width="162" height="162" fill="white"/>
</clipPath>
</defs>
</svg>
