<svg width="599" height="614" viewBox="0 0 599 614" fill="none" xmlns="http://www.w3.org/2000/svg">
<g filter="url(#filter0_d)">
<path d="M59.2647 581.398H540.761C548.42 581.389 555.763 578.363 561.179 572.984C566.595 567.604 569.641 560.31 569.65 552.702V263.309L324.363 406.133C316.977 410.428 308.572 412.693 300.013 412.693C291.453 412.693 283.049 410.428 275.662 406.133L30.375 263.309V552.702C30.3839 560.31 33.4305 567.604 38.8465 572.984C44.2624 578.363 51.6054 581.389 59.2647 581.398V581.398Z" fill="white"/>
<path d="M89.1886 196.604L44.53 222.613C40.8625 224.761 37.7013 227.666 35.2595 231.13C32.8177 234.594 31.1521 238.539 30.375 242.697L89.1886 276.936V196.604Z" fill="white"/>
<path d="M508.863 196.604L553.522 222.613C557.19 224.761 560.351 227.666 562.793 231.13C565.235 234.594 566.9 238.539 567.677 242.697L508.863 276.936V196.604Z" fill="white"/>
<path d="M313.555 390.302L490.875 287.053V57.2365C490.866 49.6572 487.831 42.3908 482.435 37.0314C477.04 31.672 469.724 28.6573 462.094 28.6484H135.906C128.276 28.6573 120.96 31.672 115.565 37.0314C110.169 42.3908 107.134 49.6572 107.125 57.2365V287.053L284.445 390.302C288.86 392.869 293.884 394.222 299 394.222C304.116 394.222 309.14 392.869 313.555 390.302V390.302ZM183.875 200.177C183.875 169.849 196.004 140.763 217.594 119.318C239.184 97.8724 268.467 85.8246 299 85.8246C329.533 85.8246 358.816 97.8724 380.406 119.318C401.996 140.763 414.125 169.849 414.125 200.177V219.236C414.127 227.671 411.311 235.87 406.118 242.545C400.925 249.22 393.649 253.995 385.431 256.121C377.212 258.247 368.515 257.605 360.704 254.294C352.892 250.983 346.408 245.191 342.267 237.826C334.75 246.359 324.849 252.479 313.822 255.409C302.796 258.339 291.141 257.946 280.339 254.281C269.537 250.616 260.077 243.844 253.159 234.825C246.242 225.807 242.18 214.949 241.49 203.632C240.8 192.315 243.512 181.049 249.284 171.267C255.055 161.485 263.623 153.628 273.901 148.695C284.178 143.762 295.7 141.975 307.002 143.561C318.304 145.148 328.877 150.037 337.375 157.606V152.53C337.375 150.003 338.386 147.579 340.185 145.792C341.984 144.005 344.424 143.001 346.969 143.001C349.513 143.001 351.953 144.005 353.753 145.792C355.552 147.579 356.562 150.003 356.562 152.53V219.236C356.562 224.29 358.584 229.138 362.182 232.712C365.781 236.286 370.661 238.294 375.75 238.294C380.839 238.294 385.719 236.286 389.318 232.712C392.916 229.138 394.938 224.29 394.938 219.236V200.177C394.933 178.842 387.72 158.127 374.453 141.349C361.186 124.571 342.634 112.701 321.768 107.642C300.902 102.582 278.93 104.626 259.372 113.445C239.815 122.264 223.803 137.348 213.903 156.281C204.002 175.214 200.786 196.9 204.769 217.864C208.753 238.829 219.705 257.859 235.871 271.905C252.038 285.951 272.483 294.202 293.931 295.334C315.379 296.466 336.59 290.415 354.164 278.15C356.244 276.694 358.822 276.12 361.329 276.552C363.836 276.984 366.067 278.388 367.532 280.454C368.997 282.52 369.576 285.08 369.141 287.571C368.706 290.061 367.293 292.277 365.212 293.733C347.966 305.771 327.724 312.876 306.693 314.272C285.661 315.669 264.647 311.304 245.941 301.653C227.235 292.003 211.555 277.436 200.611 259.543C189.667 241.649 183.878 221.114 183.875 200.177V200.177Z" fill="white"/>
<path d="M300.199 315.721C366.43 315.721 420.121 262.39 420.121 196.604C420.121 130.817 366.43 77.4866 300.199 77.4866C233.968 77.4866 180.277 130.817 180.277 196.604C180.277 262.39 233.968 315.721 300.199 315.721Z" fill="white"/>
<path d="M59.1875 600.411H539.188C551.914 600.397 564.114 595.373 573.113 586.44C582.112 577.508 587.173 565.397 587.188 552.764V247.825C587.17 239.518 584.973 231.359 580.813 224.151C576.653 216.944 570.673 210.936 563.462 206.72L510.388 175.836V57.2376C510.373 44.6053 505.312 32.4944 496.313 23.5619C487.314 14.6295 475.114 9.60501 462.388 9.59082H135.988C123.262 9.60501 111.061 14.6295 102.062 23.5619C93.0635 32.4944 88.0018 44.6053 87.9875 57.2376V175.836L34.9127 206.72C27.7024 210.936 21.7227 216.944 17.5625 224.152C13.4024 231.359 11.2052 239.518 11.1875 247.825V552.764C11.2018 565.397 16.2635 577.508 25.2622 586.44C34.2608 595.373 46.4615 600.397 59.1875 600.411V600.411ZM567.988 552.764C567.979 560.344 564.941 567.61 559.542 572.97C554.143 578.329 546.823 581.344 539.188 581.353H59.1875C51.552 581.344 44.2318 578.329 38.8326 572.97C33.4335 567.61 30.3964 560.344 30.3875 552.764V264.457L274.913 406.745C282.276 411.024 290.655 413.28 299.188 413.28C307.72 413.28 316.099 411.024 323.462 406.745L567.988 264.457V552.764ZM553.752 223.168C557.313 225.252 560.383 228.07 562.754 231.432C565.125 234.794 566.742 238.621 567.497 242.656L510.388 275.882V197.928L553.752 223.168ZM135.988 28.6495H462.388C470.023 28.6584 477.343 31.6732 482.742 37.0326C488.141 42.3919 491.179 49.6583 491.188 57.2376V287.054L313.752 390.303C309.334 392.87 304.307 394.223 299.188 394.223C294.068 394.223 289.041 392.87 284.623 390.303L107.188 287.054V57.2376C107.196 49.6583 110.234 42.3919 115.633 37.0326C121.032 31.6732 128.352 28.6584 135.988 28.6495V28.6495ZM44.6231 223.168L87.9875 197.928V275.882L30.8783 242.648C31.634 238.615 33.2518 234.789 35.6228 231.428C37.9938 228.068 41.0628 225.251 44.6231 223.168V223.168Z" fill="#F5F5F6"/>
</g>
<defs>
<filter id="filter0_d" x="-8" y="-9" width="614" height="630" filterUnits="userSpaceOnUse" color-interpolation-filters="sRGB">
<feFlood flood-opacity="0" result="BackgroundImageFix"/>
<feColorMatrix in="SourceAlpha" type="matrix" values="0 0 0 0 0 0 0 0 0 0 0 0 0 0 0 0 0 0 127 0" result="hardAlpha"/>
<feMorphology radius="1" operator="dilate" in="SourceAlpha" result="effect1_dropShadow"/>
<feOffset dy="2"/>
<feGaussianBlur stdDeviation="5"/>
<feColorMatrix type="matrix" values="0 0 0 0 0 0 0 0 0 0 0 0 0 0 0 0 0 0 0.1 0"/>
<feBlend mode="normal" in2="BackgroundImageFix" result="effect1_dropShadow"/>
<feBlend mode="normal" in="SourceGraphic" in2="effect1_dropShadow" result="shape"/>
</filter>
</defs>
</svg>
