<svg width="162" height="162" viewBox="0 0 162 162" fill="none" xmlns="http://www.w3.org/2000/svg">
<path d="M149.589 124.785L84.6308 161.533V132.918L125.104 110.648L149.589 124.785ZM154.038 120.761V43.9229L130.278 57.6553V107.05L154.038 120.761ZM13.9671 124.785L78.9249 161.533V132.918L38.43 110.648L13.9671 124.785ZM9.51733 120.761V43.9229L33.2777 57.6553V107.05L9.51733 120.761ZM12.3064 38.9408L78.9249 1.25635V28.9129L36.2371 52.3965L35.8965 52.5882L12.3064 38.9408ZM151.249 38.9408L84.6308 1.25635V28.9129L127.319 52.3752L127.659 52.5669L151.249 38.9408Z" fill="black"/>
<path d="M78.9248 126.402L38.9836 104.43V60.9338L78.9248 83.9915V126.402ZM84.6307 126.402L124.572 104.452V60.9338L84.6307 83.9915V126.402ZM41.6875 55.9093L81.7777 33.8735L121.868 55.9093L81.7777 79.0521L41.6875 55.9093Z" fill="black"/>
</svg>
