<svg width="162" height="162" viewBox="0 0 162 162" fill="none" xmlns="http://www.w3.org/2000/svg">
<path d="M146.233 38.8125H15.767C11.719 38.8125 8.4375 42.0779 8.4375 46.1059V117.582C8.4375 121.61 11.719 124.875 15.767 124.875H146.233C150.281 124.875 153.562 121.61 153.562 117.582V46.1059C153.562 42.0779 150.281 38.8125 146.233 38.8125Z" stroke="black" stroke-width="10"/>
<path d="M27 104.949V55.6875H41.4885L55.9771 73.7982L70.4656 55.6875H84.9542V104.949H70.4656V76.6959L55.9771 94.8066L41.4885 76.6959V104.949H27ZM117.553 104.949L95.8206 81.0425H110.309V55.6875H124.798V81.0425H139.286L117.553 104.949Z" fill="black"/>
</svg>
