<svg width="90" height="90" viewBox="0 0 90 90" fill="none" xmlns="http://www.w3.org/2000/svg">
<g filter="url(#filter0_d)">
<path d="M79.2483 44.8222C82.1015 41.9689 82.1015 37.3261 79.2482 34.4728C78.5752 33.7998 77.8027 33.2856 76.9777 32.9301C78.5738 30.1358 78.1807 26.5059 75.7982 24.1234C75.115 23.44 74.3203 22.9086 73.4552 22.5457C74.8768 19.8307 74.4896 16.3334 72.1391 13.9833C69.7155 11.5595 66.0796 11.2268 63.3347 12.7997C62.9728 11.9643 62.4528 11.1965 61.7896 10.5333C58.9296 7.67322 54.3004 7.67289 51.4402 10.5333L32.8841 29.0892V24.0361C32.8841 20.001 29.6014 16.7183 25.5664 16.7183C21.586 16.7183 18.3379 19.9128 18.2505 23.8726L14.817 51.9314C14.7258 52.6764 14.9827 53.4219 15.5134 53.9525L34.191 72.6302C34.6512 73.0906 35.273 73.3447 35.9157 73.3447C36.0185 73.3447 36.1217 73.3382 36.2248 73.3251C46.9598 71.9538 57.0859 66.9843 64.7383 59.332L79.2483 44.8222ZM36.7799 68.3194L19.8041 51.3435L23.1093 24.3322C23.1214 24.234 23.1274 24.1349 23.1274 24.0359C23.1274 22.691 24.2215 21.597 25.5663 21.597C26.911 21.597 28.0052 22.6911 28.0052 24.0359V34.9784C28.0052 35.965 28.5994 36.8546 29.5111 37.2321C30.4225 37.6097 31.4721 37.401 32.1696 36.7032L54.89 13.983C55.8433 13.0296 57.3863 13.0296 58.3398 13.983C59.2932 14.9366 59.2932 16.4793 58.3398 17.4328L44.2444 31.5281C43.2918 32.4806 43.2918 34.0252 44.2444 34.9779C45.1969 35.9306 46.7416 35.9306 47.6942 34.9779L65.2397 17.4328C66.1928 16.4794 67.7358 16.4794 68.6893 17.4328C69.6405 18.384 69.6405 19.9315 68.6893 20.8826C68.0941 21.4778 51.9511 37.6207 51.1442 38.4277C50.1915 39.3802 50.1915 40.9248 51.1442 41.8775C52.0965 42.8302 53.6412 42.8302 54.594 41.8775L68.8988 27.5729C69.8518 26.6197 71.3949 26.6195 72.3484 27.5729C73.2996 28.5241 73.2996 30.0716 72.3484 31.0228C71.8002 31.571 59.8071 43.5641 58.0439 45.3273C57.0913 46.2798 57.0913 47.8244 58.0439 48.7771C58.1035 48.8366 58.1653 48.8924 58.2292 48.9446C59.1872 49.7262 60.6008 49.6702 61.4937 48.7771L72.3491 37.9218C73.3004 36.9714 74.8475 36.9715 75.7982 37.9222C76.7494 38.8734 76.7494 40.4212 75.7984 41.3722L61.2887 55.8817C54.6756 62.4951 46.0115 66.8836 36.7799 68.3194Z" fill="black"/>
<path d="M80.8254 58.8708C79.4782 58.8708 78.386 59.963 78.386 61.3102C78.386 70.7258 70.7258 78.386 61.3102 78.386C59.963 78.386 58.8708 79.4782 58.8708 80.8254C58.8708 82.1726 59.963 83.2648 61.3102 83.2648C73.416 83.2648 83.2648 73.416 83.2648 61.3102C83.2648 59.963 82.1726 58.8708 80.8254 58.8708Z" fill="black"/>
<path d="M68.6284 61.3102C68.6284 65.3455 65.3454 68.6284 61.3102 68.6284C59.963 68.6284 58.8708 69.7206 58.8708 71.0678C58.8708 72.415 59.963 73.5072 61.3102 73.5072C68.0356 73.5072 73.5072 68.0356 73.5072 61.3102C73.5072 59.963 72.415 58.8708 71.0678 58.8708C69.7206 58.8708 68.6284 59.963 68.6284 61.3102Z" fill="black"/>
<path d="M21.9546 4.8788C23.3018 4.8788 24.394 3.7866 24.394 2.4394C24.394 1.0922 23.3018 0 21.9546 0C9.84883 0 0 9.84883 0 21.9546C0 23.3018 1.0922 24.394 2.4394 24.394C3.7866 24.394 4.8788 23.3018 4.8788 21.9546C4.8788 12.539 12.539 4.8788 21.9546 4.8788Z" fill="black"/>
<path d="M21.9546 14.6364C23.3018 14.6364 24.394 13.5442 24.394 12.197C24.394 10.8498 23.3018 9.7576 21.9546 9.7576C15.2292 9.7576 9.75763 15.2292 9.75763 21.9546C9.75763 23.3018 10.8498 24.394 12.197 24.394C13.5442 24.394 14.6364 23.3018 14.6364 21.9546C14.6364 17.9193 17.9194 14.6364 21.9546 14.6364Z" fill="black"/>
</g>
<defs>
<filter id="filter0_d" x="0" y="0" width="95" height="95" filterUnits="userSpaceOnUse" color-interpolation-filters="sRGB">
<feFlood flood-opacity="0" result="BackgroundImageFix"/>
<feColorMatrix in="SourceAlpha" type="matrix" values="0 0 0 0 0 0 0 0 0 0 0 0 0 0 0 0 0 0 127 0" result="hardAlpha"/>
<feOffset dx="5" dy="5"/>
<feColorMatrix type="matrix" values="0 0 0 0 0.784314 0 0 0 0 0.72549 0 0 0 0 0 0 0 0 1 0"/>
<feBlend mode="normal" in2="BackgroundImageFix" result="effect1_dropShadow"/>
<feBlend mode="normal" in="SourceGraphic" in2="effect1_dropShadow" result="shape"/>
</filter>
</defs>
</svg>
