<svg width="46" height="25" viewBox="0 0 46 25" fill="none" xmlns="http://www.w3.org/2000/svg">
<g clip-path="url(#clip0)">
<path d="M45.1971 24.1534C45.2144 24.15 45.2313 24.1453 45.2483 24.1409C45.2628 24.1372 45.2775 24.1341 45.2917 24.1297C45.3083 24.1247 45.3246 24.1184 45.3408 24.1125C45.3552 24.1074 45.3697 24.1027 45.3839 24.0967C45.3992 24.0903 45.4139 24.0828 45.4288 24.0758C45.4433 24.0689 45.4581 24.0625 45.4723 24.0548C45.4866 24.0472 45.5 24.0385 45.5138 24.0302C45.5281 24.0217 45.5424 24.0137 45.5563 24.0044C45.571 23.9946 45.5847 23.9836 45.599 23.973C45.6109 23.9641 45.6232 23.9557 45.6349 23.9461C45.6564 23.9284 45.6769 23.9095 45.6969 23.89C45.7005 23.8866 45.7043 23.8836 45.7079 23.88C45.7116 23.8763 45.7148 23.8722 45.7184 23.8683C45.7376 23.8486 45.7562 23.8284 45.7737 23.8071C45.784 23.7945 45.7929 23.7815 45.8025 23.7686C45.8123 23.7553 45.8227 23.7423 45.8319 23.7285C45.8417 23.7137 45.8504 23.6984 45.8594 23.6832C45.867 23.6704 45.8751 23.6579 45.8821 23.6447C45.8904 23.6294 45.8973 23.6136 45.9046 23.598C45.9111 23.5842 45.9181 23.5704 45.924 23.5562C45.9304 23.5409 45.9355 23.5253 45.9411 23.5097C45.9465 23.4945 45.9524 23.4795 45.957 23.464C45.9618 23.4483 45.9653 23.4323 45.9693 23.4164C45.9731 23.4007 45.9776 23.3852 45.9807 23.3694C45.9844 23.3506 45.9867 23.3317 45.9894 23.3128C45.9912 23.2994 45.9937 23.2863 45.9951 23.2728C45.9984 23.2397 46.0001 23.2065 46.0001 23.1732V1.82595C46.0001 1.27426 45.5536 0.827225 45.0025 0.827225H13.5785C13.5697 0.827225 13.5612 0.828289 13.5524 0.828556C13.5334 0.829088 13.5145 0.829888 13.4956 0.831486C13.4806 0.832684 13.4657 0.834416 13.4508 0.836413C13.4338 0.838544 13.4169 0.841074 13.4 0.844136C13.3842 0.846933 13.3685 0.850262 13.3529 0.853857C13.3371 0.857586 13.3213 0.861581 13.3056 0.866109C13.29 0.870503 13.2747 0.875296 13.2595 0.880356C13.244 0.885683 13.2284 0.891277 13.2131 0.897402C13.1986 0.903128 13.1844 0.908987 13.1703 0.915379C13.1546 0.922436 13.139 0.930027 13.1236 0.937884C13.1104 0.944676 13.0975 0.9516 13.0848 0.958924C13.0693 0.967713 13.0542 0.977034 13.0391 0.986622C13.0268 0.994612 13.0147 1.00287 13.0027 1.01126C12.9886 1.02124 12.9746 1.03163 12.9609 1.04255C12.9484 1.05254 12.9362 1.06279 12.9241 1.07331C12.9121 1.08383 12.9003 1.09435 12.8887 1.10554C12.8755 1.11819 12.8629 1.13137 12.8504 1.14469C12.8442 1.15135 12.8375 1.15721 12.8315 1.164C12.8279 1.16799 12.8251 1.17239 12.8217 1.17638C12.8092 1.1909 12.7975 1.20608 12.7858 1.22139C12.7772 1.23258 12.7685 1.24376 12.7605 1.25521C12.7501 1.27013 12.7405 1.28544 12.731 1.30089C12.7231 1.31354 12.715 1.32606 12.7078 1.33897C12.6994 1.35389 12.6921 1.3692 12.6845 1.38452C12.6776 1.3985 12.6704 1.41248 12.6642 1.42673C12.6577 1.44178 12.652 1.45736 12.6462 1.47267C12.6405 1.48772 12.6347 1.50263 12.6297 1.51781C12.6248 1.53313 12.6208 1.54871 12.6166 1.56429C12.6123 1.58027 12.6078 1.59611 12.6042 1.61223C12.6009 1.62727 12.5986 1.64259 12.596 1.65777C12.593 1.67508 12.5901 1.69239 12.588 1.7097C12.5862 1.72408 12.5854 1.73873 12.5844 1.75338C12.5831 1.77202 12.5819 1.79067 12.5816 1.80944C12.5815 1.8149 12.5808 1.82023 12.5808 1.82569V7.98479C12.5808 8.53649 13.0273 8.98352 13.5784 8.98352C14.1294 8.98352 14.576 8.53649 14.576 7.98479V4.0438L23.4453 11.9054C23.399 11.938 23.3545 11.9741 23.313 12.0155L14.5758 20.7627V14.1993C14.5758 13.6476 14.1293 13.2006 13.5782 13.2006C13.0272 13.2006 12.5807 13.6476 12.5807 14.1993V15.4196H7.42645C6.87538 15.4196 6.42886 15.8666 6.42886 16.4183C6.42886 16.97 6.87538 17.4171 7.42645 17.4171H12.5807V23.1739C12.5807 23.7256 13.0272 24.1726 13.5782 24.1726H45.0023C45.0351 24.1726 45.068 24.1709 45.1007 24.1677C45.116 24.1662 45.1308 24.1633 45.1458 24.1611C45.1631 24.1588 45.1801 24.1568 45.1971 24.1534ZM44.0048 20.7628L35.2675 12.0157C35.262 12.0101 35.256 12.0054 35.2502 12.0001L41.8188 6.42091C42.2388 6.06403 42.2904 5.4339 41.934 5.01323C41.5778 4.59284 40.9483 4.5409 40.5279 4.89791L29.3042 14.4311L16.21 2.82482H44.0048V20.7628ZM24.724 13.4283C24.7951 13.357 24.8529 13.2777 24.8979 13.1932L28.6291 16.5004C28.8177 16.6675 29.0539 16.7514 29.2904 16.7514C29.52 16.7514 29.7494 16.6724 29.9359 16.5142L33.7383 13.2844C33.7729 13.3351 33.8119 13.3834 33.8567 13.4283L42.5938 22.1754H15.9868L24.724 13.4283Z" fill="black"/>
<path d="M0.997588 12.2016H17.8458C18.3969 12.2016 18.8434 11.7545 18.8434 11.2028C18.8434 10.6511 18.3969 10.2041 17.8458 10.2041H0.997588C0.446521 10.2041 0 10.6511 0 11.2028C0 11.7545 0.446521 12.2016 0.997588 12.2016Z" fill="black"/>
<path d="M2.74336 6.69776H10.3084C10.8595 6.69776 11.306 6.25073 11.306 5.69903C11.306 5.14733 10.8595 4.7003 10.3084 4.7003H2.74336C2.19229 4.7003 1.74577 5.14733 1.74577 5.69903C1.74577 6.25073 2.19229 6.69776 2.74336 6.69776Z" fill="black"/>
<path d="M8.31324 19.6366H0.997588C0.446521 19.6366 0 20.0837 0 20.6354C0 21.1871 0.446521 21.6341 0.997588 21.6341H8.31324C8.8643 21.6341 9.31083 21.1871 9.31083 20.6354C9.31083 20.0837 8.8643 19.6366 8.31324 19.6366Z" fill="black"/>
</g>
<defs>
<clipPath id="clip0">
<rect width="46" height="25" fill="white"/>
</clipPath>
</defs>
</svg>
