<svg width="96" height="96" viewBox="0 0 96 96" fill="none" xmlns="http://www.w3.org/2000/svg">
<path d="M88.6451 73.9467L50.1516 95.7231V78.7663L74.1359 65.5692L88.6451 73.9467ZM91.282 71.5621V26.0285L77.2017 34.1663V63.437L91.282 71.5621ZM8.27678 73.9467L46.7703 95.7231V78.7663L22.7733 65.5692L8.27678 73.9467ZM5.63989 71.5621V26.0285L19.7201 34.1663V63.437L5.63989 71.5621ZM7.29268 23.0762L46.7703 0.744629V17.1337L21.4738 31.0499L21.272 31.1635L7.29268 23.0762ZM89.6292 23.0762L50.1516 0.744629V17.1337L75.448 31.0373L75.6499 31.1509L89.6292 23.0762Z" fill="black"/>
<path d="M46.7703 74.9052L23.1014 61.8848V36.109L46.7703 49.7728V74.9052ZM50.1515 74.9052L73.8203 61.8974V36.109L50.1515 49.7728V74.9052ZM24.7037 33.1315L48.4609 20.0732L72.218 33.1315L48.4609 46.8458L24.7037 33.1315Z" fill="black"/>
</svg>
