<svg width="128" height="89" viewBox="0 0 128 89" fill="none" xmlns="http://www.w3.org/2000/svg">
<g clip-path="url(#clip0)">
<path d="M7.17596 87.868C5.67817 87.868 4.36195 87.7164 3.22692 87.4133C2.09189 87.1102 1.22422 86.7388 0.623928 86.2991C0.0238269 85.8594 -0.276321 85.4432 -0.276321 85.0512C-0.276321 84.742 -0.160498 84.3618 0.0711402 83.9101C0.303171 83.4586 0.579567 83.0693 0.900327 82.7421C1.22128 82.4154 1.48865 82.2521 1.70262 82.2521C1.83335 82.2521 2.1129 82.365 2.54084 82.5907C3.18236 82.9235 3.79129 83.1908 4.36803 83.3928C4.94457 83.595 5.6073 83.6959 6.356 83.6959C7.18794 83.6959 7.89227 83.5326 8.46862 83.2058C9.04497 82.8789 9.33314 82.3053 9.33314 81.4854C9.33314 81.0097 9.18454 80.5996 8.88754 80.2549C8.59033 79.9102 8.2099 79.6189 7.74642 79.3814C7.28315 79.1438 6.65301 78.8643 5.8568 78.5431L4.44832 77.9372C3.59243 77.521 2.85826 77.0636 2.24638 76.5644C1.63431 76.0652 1.1353 75.4056 0.748583 74.5857C0.362453 73.7651 0.169484 72.761 0.169484 71.5724C0.169484 70.1225 0.525974 68.916 1.23934 67.9533C1.95232 66.9906 2.87926 66.2834 4.02038 65.8317C5.16129 65.3802 6.38545 65.1544 7.69323 65.1544C8.76269 65.1544 9.73125 65.2643 10.5989 65.4842C11.4666 65.7041 12.1472 65.9862 12.6405 66.3309C13.1336 66.6758 13.3801 67.0205 13.3801 67.3654C13.3801 67.6504 13.2879 68.0159 13.1039 68.4616C12.9194 68.9072 12.6909 69.2966 12.4175 69.6296C12.144 69.9621 11.8886 70.1286 11.6509 70.1286C11.5441 70.1286 11.3539 70.0691 11.0806 69.9503C10.6484 69.7745 10.2045 69.6286 9.75225 69.5135C9.30664 69.4007 8.76288 69.3441 8.12097 69.3441C7.01578 69.3441 6.24902 69.5194 5.82127 69.8702C5.39333 70.2206 5.17936 70.6339 5.17936 71.1089C5.17936 71.6558 5.32501 72.1134 5.61613 72.4819C5.90745 72.8503 6.27571 73.1532 6.72132 73.3911C7.16693 73.6287 7.78823 73.9023 8.58464 74.2113C9.78504 74.7223 10.7656 75.2066 11.5262 75.6643C12.2869 76.1217 12.9436 76.7786 13.4964 77.6343C14.0491 78.4901 14.3255 79.5836 14.3255 80.9149C14.3255 82.5432 13.984 83.8775 13.3004 84.9175C12.6169 85.9574 11.7375 86.7092 10.6617 87.1727C9.58598 87.6363 8.42426 87.868 7.17635 87.868H7.17596ZM26.1633 87.868C24.2375 87.868 22.5886 87.5649 21.2156 86.9587C19.8429 86.3527 18.7938 85.476 18.0689 84.329C17.3439 83.1822 16.9813 81.8006 16.9813 80.184V66.3668C16.9813 66.0221 17.1358 65.7636 17.4446 65.5914C17.754 65.4186 18.2353 65.3327 18.889 65.3327H19.9589C20.6126 65.3327 21.0908 65.419 21.3939 65.5912C21.697 65.7636 21.8485 66.0221 21.8485 66.3666V79.8629C21.8485 80.5998 22.0297 81.2594 22.3923 81.8416C22.7548 82.4243 23.2629 82.8789 23.9166 83.206C24.5702 83.5326 25.3191 83.6959 26.1631 83.6959C27.0066 83.6959 27.7584 83.5326 28.418 83.2058C29.0776 82.8789 29.5919 82.4245 29.9602 81.8418C30.3286 81.2594 30.513 80.5998 30.513 79.8631V66.3668C30.513 66.0221 30.6641 65.7636 30.9674 65.5914C31.2705 65.4186 31.7487 65.3327 32.4024 65.3327H33.4546C34.1083 65.3327 34.5865 65.419 34.8896 65.5912C35.1926 65.7636 35.3442 66.0221 35.3442 66.3666V80.1839C35.3442 81.8 34.9818 83.1818 34.2567 84.3286C33.5319 85.4756 32.4829 86.3525 31.1099 86.9583C29.7374 87.5645 28.0882 87.8676 26.1631 87.8676L26.1633 87.868ZM41.5488 87.654C40.2771 87.654 39.6413 87.3213 39.6413 86.6558V66.6701C39.6413 66.2304 39.742 65.9123 39.9442 65.716C40.1464 65.5201 40.4671 65.4222 40.9069 65.4222H47.0934C52.3465 65.4222 54.9734 67.4009 54.9734 71.359C54.9734 72.5594 54.6377 73.5933 53.9664 74.461C53.2946 75.3287 52.394 75.9765 51.2652 76.4044V76.5293C51.6574 76.6957 52.0705 77.0524 52.5043 77.5991C52.9381 78.1458 53.2856 78.7638 53.5472 79.4532L56.346 86.424C56.4412 86.7094 56.4887 86.9114 56.4887 87.0305C56.4887 87.4463 55.8585 87.6542 54.5988 87.6542H53.2974C52.2393 87.6542 51.6274 87.4343 51.4611 86.9946L48.9473 80.8081C48.7097 80.333 48.4806 79.9644 48.2608 79.7029C48.0409 79.4414 47.7347 79.2422 47.3427 79.1056C46.9505 78.9689 46.4216 78.9006 45.7559 78.9006H44.5257V86.656C44.5257 87.3215 43.8897 87.6542 42.6182 87.6542H41.5484L41.5488 87.654ZM47.5213 74.6928C47.9493 74.6928 48.3536 74.5711 48.7339 74.3273C49.1143 74.0839 49.417 73.7541 49.6432 73.3379C49.8689 72.9218 49.9816 72.4644 49.9816 71.9652C49.9816 71.2285 49.7409 70.6431 49.2596 70.2092C48.7782 69.7754 48.1275 69.5585 47.3073 69.5585H44.5263V74.693H47.5215L47.5213 74.6928ZM60.8927 87.654C59.6211 87.654 58.9853 87.3213 58.9853 86.6558V66.6701C58.9853 66.2304 59.086 65.9123 59.2882 65.716C59.4903 65.5201 59.8111 65.4222 60.2508 65.4222H70.8408C71.1738 65.4222 71.4144 65.5468 71.5628 65.7965C71.7114 66.0458 71.7858 66.4502 71.7858 67.0089V67.9716C71.7858 68.5303 71.7112 68.9343 71.5628 69.184C71.4144 69.4333 71.1738 69.5583 70.8408 69.5583H63.8701V74.1936H70.6092C70.9419 74.1936 71.1855 74.3185 71.34 74.568C71.4945 74.8177 71.5717 75.2158 71.5717 75.7625V76.743C71.5717 77.3017 71.4945 77.7089 71.34 77.9644C71.1855 78.2196 70.9419 78.3476 70.6092 78.3476H63.8701V86.6558C63.8701 87.3213 63.2341 87.654 61.9624 87.654H60.8926H60.8927ZM74.6743 87.654C73.3787 87.654 72.7308 87.4224 72.7308 86.9587C72.7308 86.828 72.7727 86.6379 72.8559 86.3882L79.8443 66.0105C80.0112 65.559 80.6113 65.3329 81.6452 65.3329H83.2857C84.3196 65.3329 84.9199 65.5586 85.0864 66.0105L92.0748 86.3882C92.1345 86.6258 92.1641 86.8162 92.1641 86.9587C92.1641 87.1962 92.0365 87.3717 91.781 87.4848C91.5254 87.5977 91.1241 87.654 90.5776 87.654H89.1868C88.6876 87.654 88.2866 87.6036 87.9835 87.5025C87.6804 87.4016 87.4931 87.2322 87.422 86.9944L86.1382 83.1257H78.6681L77.3842 86.9944C77.2537 87.4341 76.7665 87.654 75.9226 87.654H74.6743ZM84.7831 78.9361L82.9824 73.3022C82.8754 73.017 82.7834 72.6901 82.706 72.3217C82.6325 71.9721 82.5641 71.6215 82.5011 71.2699H82.3764L82.3052 71.6619C82.1862 72.3631 82.0496 72.9098 81.8949 73.302L80.0231 78.9359H84.7835L84.7831 78.9361ZM104.02 87.868C100.454 87.868 97.8246 86.941 96.1311 85.0867C94.4373 83.2327 93.5905 80.3505 93.5905 76.4399C93.5905 68.9164 97.1206 65.1544 104.181 65.1544C105.144 65.1544 106.142 65.2498 107.176 65.4398C108.21 65.6303 109.075 65.8945 109.77 66.2333C110.465 66.5719 110.813 66.9494 110.813 67.3654C110.813 67.6624 110.694 68.0517 110.456 68.533C110.219 69.0143 109.936 69.4391 109.609 69.8076C109.283 70.1763 108.994 70.3606 108.745 70.3606C108.685 70.3606 108.525 70.3011 108.263 70.1824C107.681 69.9406 107.082 69.7409 106.472 69.5848C105.847 69.4244 105.054 69.3441 104.091 69.3441C102.225 69.3441 100.844 69.9354 99.9462 71.1181C99.0491 72.3007 98.6002 74.0863 98.6002 76.4753C98.6002 78.8643 99.0521 80.6652 99.9554 81.8776C100.858 83.0897 102.214 83.6959 104.02 83.6959C104.959 83.6959 105.777 83.6009 106.472 83.4107C107.167 83.2203 107.848 82.9769 108.513 82.6799C108.549 82.6681 108.656 82.6233 108.834 82.546C109.013 82.4688 109.143 82.4302 109.226 82.4302C109.535 82.4302 109.832 82.6113 110.118 82.9739C110.403 83.3365 110.635 83.7466 110.813 84.2042C110.992 84.6616 111.081 84.9913 111.081 85.1935C111.081 85.7758 110.691 86.2693 109.913 86.6731C109.134 87.0775 108.195 87.3774 107.096 87.5735C105.996 87.7698 104.972 87.8676 104.02 87.8676L104.02 87.868ZM115.252 87.6006C114.812 87.6006 114.491 87.4995 114.289 87.2975C114.087 87.0953 113.986 86.7746 113.986 86.3348V66.6701C113.986 66.2304 114.087 65.9123 114.289 65.716C114.491 65.5201 114.812 65.4222 115.252 65.4222H126.858C127.191 65.4222 127.431 65.5468 127.58 65.7965C127.729 66.0458 127.803 66.4502 127.803 67.0089V67.9716C127.803 68.5303 127.729 68.9343 127.58 69.184C127.432 69.4333 127.191 69.5583 126.858 69.5583H118.871V74.1577H126.002C126.335 74.1577 126.576 74.2828 126.724 74.5327C126.873 74.782 126.947 75.1863 126.947 75.7446V76.7254C126.947 77.2839 126.873 77.688 126.724 77.9375C126.576 78.1872 126.335 78.3121 126.002 78.3121H118.871V83.4466H126.876C127.209 83.4466 127.449 83.5713 127.598 83.8208C127.747 84.0705 127.821 84.4686 127.821 85.0153V86.0139C127.821 86.5726 127.747 86.9766 127.598 87.2263C127.45 87.4756 127.209 87.6006 126.876 87.6006H115.252Z" fill="black"/>
<path d="M58.4495 7.13958V44.497L85.4472 25.8183L58.4495 7.13958ZM91.1561 27.8363L57.3918 51.1965C55.7645 52.3225 53.5419 51.1576 53.5419 49.1785V2.45812C53.5419 0.478984 55.7643 -0.685885 57.3918 0.440116L91.1561 23.8003C92.5664 24.7759 92.5664 26.8607 91.1561 27.8363Z" fill="black"/>
<path d="M44.1193 20.9108H65.1238C65.5403 20.9108 65.9398 20.7453 66.2343 20.4508C66.5288 20.1563 66.6943 19.7568 66.6943 19.3403C66.6943 18.9238 66.5288 18.5244 66.2343 18.2299C65.9398 17.9354 65.5403 17.7699 65.1238 17.7699H44.1193C43.7028 17.7699 43.3034 17.9354 43.0089 18.2299C42.7143 18.5244 42.5489 18.9238 42.5489 19.3403C42.5489 19.7568 42.7143 20.1563 43.0089 20.4508C43.3034 20.7453 43.7028 20.9108 44.1193 20.9108ZM44.1193 34.6521H65.1238C65.5403 34.6521 65.9398 34.4866 66.2343 34.1921C66.5288 33.8976 66.6943 33.4981 66.6943 33.0816C66.6943 32.6651 66.5288 32.2657 66.2343 31.9712C65.9398 31.6767 65.5403 31.5112 65.1238 31.5112H44.1193C43.7028 31.5112 43.3034 31.6767 43.0089 31.9712C42.7143 32.2657 42.5489 32.6651 42.5489 33.0816C42.5489 33.4981 42.7143 33.8976 43.0089 34.1921C43.3034 34.4866 43.7028 34.6521 44.1193 34.6521ZM37.3468 27.9777H70.3259C70.7424 27.9777 71.1418 27.8123 71.4364 27.5178C71.7309 27.2232 71.8963 26.8238 71.8963 26.4073C71.8963 25.9908 71.7309 25.5913 71.4364 25.2968C71.1418 25.0023 70.7424 24.8369 70.3259 24.8369H37.3468C36.9303 24.8369 36.5309 25.0023 36.2364 25.2968C35.9419 25.5913 35.7764 25.9908 35.7764 26.4073C35.7764 26.8238 35.9419 27.2232 36.2364 27.5178C36.5309 27.8123 36.9303 27.9777 37.3468 27.9777Z" fill="black"/>
</g>
<defs>
<clipPath id="clip0">
<rect width="128" height="88.2484" fill="white"/>
</clipPath>
</defs>
</svg>
