<svg width="96" height="96" viewBox="0 0 96 96" fill="none" xmlns="http://www.w3.org/2000/svg">
<path d="M86.6566 23H9.34343C6.94462 23 5 24.935 5 27.322V69.678C5 72.065 6.94462 74 9.34343 74H86.6566C89.0554 74 91 72.065 91 69.678V27.322C91 24.935 89.0554 23 86.6566 23Z" stroke="black" stroke-width="10"/>
<path d="M16 62.1917V33H24.5858L33.1716 43.7323L41.7574 33H50.3432V62.1917H41.7574V45.4494L33.1716 56.1817L24.5858 45.4494V62.1917H16ZM69.6613 62.1917L56.7826 48.0252H65.3684V33H73.9542V48.0252H82.54L69.6613 62.1917Z" fill="black"/>
</svg>
