<svg width="96" height="96" viewBox="0 0 96 96" fill="none" xmlns="http://www.w3.org/2000/svg">
<g clip-path="url(#clip0)">
<path d="M93.4086 44.2604L51.8411 2.69605C49.4489 0.301839 45.5662 0.301839 43.1709 2.69605L34.5395 11.3275L45.4889 22.2769C48.0335 21.4172 50.9511 21.9939 52.9797 24.0225C55.0177 26.0636 55.5901 29.0062 54.7095 31.5592L65.262 42.1117C67.815 41.2321 70.7607 41.8014 72.7998 43.8436C75.6494 46.6922 75.6494 51.3093 72.7998 54.16C69.9491 57.0107 65.332 57.0107 62.4802 54.16C60.3367 52.0144 59.8071 48.866 60.8925 46.2253L51.0513 36.3842L51.0503 62.2817C51.7449 62.6264 52.401 63.085 52.9797 63.6616C55.8293 66.5103 55.8293 71.1273 52.9797 73.9801C50.129 76.8298 45.5098 76.8298 42.6633 73.9801C39.8136 71.1273 39.8136 66.5103 42.6633 63.6616C43.3673 62.9586 44.1821 62.4269 45.0512 62.0697V35.9308C44.1821 35.5757 43.3684 35.0471 42.6633 34.3389C40.5041 32.1828 39.9849 29.0146 41.0911 26.3634L30.2984 15.5686L1.79668 44.0682C-0.598569 46.4645 -0.598569 50.3473 1.79668 52.7415L43.3642 94.3069C45.7573 96.7011 49.6391 96.7011 52.0353 94.3069L93.4086 52.9347C95.8028 50.5395 95.8028 46.6546 93.4086 44.2604Z" fill="black"/>
</g>
<defs>
<clipPath id="clip0">
<rect width="96" height="96" fill="white"/>
</clipPath>
</defs>
</svg>
