<svg width="128" height="29" viewBox="0 0 128 29" fill="none" xmlns="http://www.w3.org/2000/svg">
<g clip-path="url(#clip0)">
<path d="M20.2353 5.6086V28.8222H20.0784L4.39216 14.6448L4.54902 27.8874H0V4.67383H0.156863L15.8431 19.007L15.6863 5.6086H20.2353Z" fill="black"/>
<path d="M31.6863 11.0614C32.7843 9.34768 34.0392 7.94552 35.9216 6.85495C37.6471 5.76438 39.5294 5.297 41.7255 5.297C43.9216 5.297 45.6471 5.76438 47.5294 6.85495C49.2549 7.94552 50.6667 9.34768 51.7647 11.0614C52.8627 12.7752 53.3333 14.6447 53.3333 16.6701C53.3333 18.6954 52.8627 20.565 51.7647 22.4345C50.6667 24.3041 49.2549 25.5504 47.5294 26.641C45.8039 27.7316 43.9216 28.199 41.7255 28.199C39.6863 28.199 37.8039 27.7316 35.9216 26.641C34.1961 25.5504 32.7843 24.3041 31.6863 22.4345C30.5882 20.565 30.1176 18.8512 30.1176 16.6701C30.2745 14.8005 30.7451 12.7752 31.6863 11.0614ZM35.7647 20.4092C36.3922 21.4998 37.1765 22.4345 38.2745 23.0577C39.3725 23.6809 40.4706 23.9925 41.8824 23.9925C43.1373 23.9925 44.2353 23.6809 45.3333 23.0577C46.4314 22.4345 47.2157 21.4998 47.8431 20.4092C48.4706 19.3186 48.7843 18.0722 48.7843 16.8259C48.7843 15.4237 48.4706 14.3331 47.8431 13.2426C47.2157 12.152 46.4314 11.2172 45.3333 10.5941C44.2353 9.97087 43.1373 9.65928 41.8824 9.65928C40.6275 9.65928 39.2157 9.81507 38.2745 10.5941C37.3333 11.373 36.3922 12.152 35.7647 13.2426C35.1373 14.3331 34.8235 15.5795 34.8235 16.8259C34.8235 18.0722 35.1373 19.3186 35.7647 20.4092Z" fill="black"/>
<path d="M78.4314 5.60864V9.81513H67.451V14.6448H77.1765V18.8513H67.451V23.6809H78.7451V27.8874H63.2157V5.60864H78.4314ZM72 4.05069H69.3333L71.8432 0H76.549L72 4.05069Z" fill="black"/>
<path d="M112.157 4.67383V27.8874H107.765V17.2933L100.392 27.5758L93.3333 17.9165V27.8874H89.098V4.67383L100.392 20.7208L112.157 4.67383Z" fill="black"/>
<path d="M128 5.60864V27.8874H123.608V5.60864H128Z" fill="black"/>
</g>
<defs>
<clipPath id="clip0">
<rect width="128" height="28.8222" fill="white"/>
</clipPath>
</defs>
</svg>
