<svg width="129" height="122" viewBox="0 0 129 122" fill="none" xmlns="http://www.w3.org/2000/svg">
<g filter="url(#filter0_d)">
<path d="M49.0744 8.81818V25.7188C49.0744 29.2727 46.6199 31.8295 42.6312 31.8295C38.6554 31.8295 36.188 29.2727 36.188 25.7188V8.81818H32.2377V26.0384C32.2377 31.5355 36.3542 35.4347 42.6312 35.4347C48.9082 35.4347 53.0375 31.5355 53.0375 26.0384V8.81818H49.0744ZM62.2963 23.3409C62.2963 20.2088 64.214 18.419 66.873 18.419C69.4682 18.419 71.0407 20.1193 71.0407 22.9702V35H74.8631V22.5099C74.8631 17.652 72.1912 15.108 68.177 15.108C65.2239 15.108 63.2935 16.4759 62.3858 18.5597H62.1429V15.3636H58.4739V35H62.2963V23.3409ZM97.0691 42.3636V15.3636H93.3361V18.5469H93.0165C92.339 17.3324 91.0222 15.108 87.3787 15.108C82.6358 15.108 79.133 18.8537 79.133 25.2202C79.133 31.5739 82.5847 35.3835 87.3404 35.3835C90.9199 35.3835 92.3262 33.1974 93.0165 31.9446H93.2466V42.3636H97.0691ZM93.3233 25.1818C93.3233 29.3111 91.4824 32.1236 88.1969 32.1236C84.7836 32.1236 82.9938 29.1193 82.9938 25.1818C82.9938 21.2827 84.7324 18.3551 88.1969 18.3551C91.5336 18.3551 93.3233 21.0781 93.3233 25.1818ZM38.4013 71H42.3899L47.8999 51.3892H48.1044L53.6143 71H57.5902L64.8643 44.8182H60.6967L55.6087 65.1065H55.3658L50.0604 44.8182H45.9439L40.6385 65.0938H40.3956L35.2947 44.8182H31.1399L38.4013 71ZM74.6889 71.3963C78.9716 71.3963 82.0014 69.2869 82.8707 66.0909L79.2528 65.4389C78.5625 67.2926 76.9006 68.2386 74.7273 68.2386C71.4545 68.2386 69.2557 66.1165 69.1534 62.3324H83.1136V60.9773C83.1136 53.8821 78.8693 51.108 74.4205 51.108C68.9489 51.108 65.3438 55.2756 65.3438 61.3097C65.3438 67.4077 68.8977 71.3963 74.6889 71.3963ZM69.1662 59.4688C69.3196 56.6818 71.3395 54.2656 74.446 54.2656C77.4119 54.2656 79.3551 56.4645 79.3679 59.4688H69.1662ZM87.3548 71H91.1772V59.0085C91.1772 56.4389 93.1587 54.5852 95.869 54.5852C96.6616 54.5852 97.5565 54.7259 97.8633 54.8153V51.1591C97.4798 51.108 96.7255 51.0696 96.2397 51.0696C93.9386 51.0696 91.9698 52.3736 91.2539 54.483H91.0494V51.3636H87.3548V71ZM32.4055 84.2188H40.5618V107H44.4993V84.2188H52.6683V80.8182H32.4055V84.2188ZM56.8391 107H60.6616V87.3636H56.8391V107ZM58.7695 84.3338C60.0863 84.3338 61.1857 83.3111 61.1857 82.0582C61.1857 80.8054 60.0863 79.7699 58.7695 79.7699C57.44 79.7699 56.3533 80.8054 56.3533 82.0582C56.3533 83.3111 57.44 84.3338 58.7695 84.3338ZM74.267 107.396C78.5497 107.396 81.5795 105.287 82.4489 102.091L78.831 101.439C78.1406 103.293 76.4787 104.239 74.3054 104.239C71.0327 104.239 68.8338 102.116 68.7315 98.3324H82.6918V96.9773C82.6918 89.8821 78.4474 87.108 73.9986 87.108C68.527 87.108 64.9219 91.2756 64.9219 97.3097C64.9219 103.408 68.4759 107.396 74.267 107.396ZM68.7443 95.4688C68.8977 92.6818 70.9176 90.2656 74.0241 90.2656C76.9901 90.2656 78.9332 92.4645 78.946 95.4688H68.7443ZM86.9329 107H90.7553V95.0085C90.7553 92.4389 92.7369 90.5852 95.4471 90.5852C96.2397 90.5852 97.1346 90.7259 97.4414 90.8153V87.1591C97.0579 87.108 96.3036 87.0696 95.8178 87.0696C93.5167 87.0696 91.5479 88.3736 90.832 90.483H90.6275V87.3636H86.9329V107Z" fill="black"/>
</g>
<defs>
<filter id="filter0_d" x="20.1399" y="0.818237" width="88.7234" height="120.578" filterUnits="userSpaceOnUse" color-interpolation-filters="sRGB">
<feFlood flood-opacity="0" result="BackgroundImageFix"/>
<feColorMatrix in="SourceAlpha" type="matrix" values="0 0 0 0 0 0 0 0 0 0 0 0 0 0 0 0 0 0 127 0" result="hardAlpha"/>
<feMorphology radius="1" operator="dilate" in="SourceAlpha" result="effect1_dropShadow"/>
<feOffset dy="3"/>
<feGaussianBlur stdDeviation="5"/>
<feColorMatrix type="matrix" values="0 0 0 0 0 0 0 0 0 0 0 0 0 0 0 0 0 0 0.1 0"/>
<feBlend mode="normal" in2="BackgroundImageFix" result="effect1_dropShadow"/>
<feBlend mode="normal" in="SourceGraphic" in2="effect1_dropShadow" result="shape"/>
</filter>
</defs>
</svg>
