<svg width="150" height="94" viewBox="0 0 150 94" fill="none" xmlns="http://www.w3.org/2000/svg">
<path d="M76.8565 32.9282C76.8565 29.8615 74.8639 27.2603 72.1029 26.3483C71.4189 26.1224 70.6879 26 69.9282 26C69.1199 26 68.3438 26.1385 67.6225 26.3929C64.9297 27.343 63 29.9103 63 32.9282C63 35.1117 64.0101 37.0592 65.5885 38.3291C66.1684 38.7956 66.4729 39.524 66.408 40.2654L64.8712 57.8181C64.7999 58.6327 65.4419 59.3333 66.2596 59.3333H73.3597C74.1755 59.3333 74.8169 58.6358 74.7485 57.8229L73.2832 40.3899C73.2195 39.6319 73.5409 38.8897 74.1442 38.4264C75.7934 37.1599 76.8565 35.1683 76.8565 32.9282Z" fill="black"/>
<g filter="url(#filter0_d_1386:22)">
<path d="M86.6776 8.18182V53.25C86.6776 62.7273 80.1321 69.5455 69.4957 69.5455C58.8935 69.5455 52.3139 62.7273 52.3139 53.25V8.18182H41.7798V54.1023C41.7798 68.7614 52.7571 79.1591 69.4957 79.1591C86.2344 79.1591 97.2457 68.7614 97.2457 54.1023V8.18182H86.6776Z" fill="black"/>
</g>
<defs>
<filter id="filter0_d_1386:22" x="30.7798" y="0.181824" width="77.4659" height="92.9773" filterUnits="userSpaceOnUse" color-interpolation-filters="sRGB">
<feFlood flood-opacity="0" result="BackgroundImageFix"/>
<feColorMatrix in="SourceAlpha" type="matrix" values="0 0 0 0 0 0 0 0 0 0 0 0 0 0 0 0 0 0 127 0" result="hardAlpha"/>
<feMorphology radius="1" operator="dilate" in="SourceAlpha" result="effect1_dropShadow_1386:22"/>
<feOffset dy="3"/>
<feGaussianBlur stdDeviation="5"/>
<feColorMatrix type="matrix" values="0 0 0 0 0 0 0 0 0 0 0 0 0 0 0 0 0 0 0.1 0"/>
<feBlend mode="normal" in2="BackgroundImageFix" result="effect1_dropShadow_1386:22"/>
<feBlend mode="normal" in="SourceGraphic" in2="effect1_dropShadow_1386:22" result="shape"/>
</filter>
</defs>
</svg>
