<svg width="128" height="29" viewBox="0 0 128 29" fill="none" xmlns="http://www.w3.org/2000/svg">
<g clip-path="url(#clip0)">
<path d="M10.6993 20.7917C8.4317 20.7917 6.50425 20.313 4.91694 19.3556C3.35481 18.3981 2.15804 17.1384 1.32659 15.5763C0.495146 14.0141 0.079422 12.326 0.079422 10.512C0.079422 8.67272 0.495146 6.97203 1.32659 5.40991C2.15804 3.84778 3.36742 2.58802 4.95473 1.6306C6.54204 0.673171 8.45688 0.194458 10.6993 0.194458C12.9417 0.194458 14.8565 0.673171 16.4438 1.6306C18.0311 2.58802 19.2405 3.84778 20.072 5.40991C20.9034 6.97203 21.3191 8.67272 21.3191 10.512C21.3191 12.326 20.9034 14.0141 20.072 15.5763C19.2405 17.1384 18.0311 18.3981 16.4438 19.3556C14.8565 20.313 12.9417 20.7917 10.6993 20.7917ZM6.27749 10.512C6.27749 12.0489 6.69322 13.2961 7.52466 14.2535C8.3813 15.2109 9.43951 15.6896 10.6993 15.6896C11.9339 15.6896 12.9669 15.2109 13.7983 14.2535C14.655 13.2961 15.0833 12.0489 15.0833 10.512C15.0833 8.97507 14.655 7.72789 13.7983 6.77046C12.9669 5.81302 11.9339 5.33432 10.6993 5.33432C9.43951 5.33432 8.3813 5.81302 7.52466 6.77046C6.69322 7.72789 6.27749 8.97507 6.27749 10.512ZM37.9614 20.4138H31.9145V9.2648C31.9145 7.95465 31.6626 7.00983 31.1586 6.43032C30.68 5.82563 30.0375 5.52329 29.2311 5.52329C28.3997 5.52329 27.5557 5.85082 26.6991 6.50591C25.8424 7.161 25.2377 8.00503 24.885 9.03805V20.4138H18.8381V0.57239H24.2803V3.89818C25.011 2.7392 26.044 1.83216 27.3793 1.17708C28.7147 0.521998 30.2516 0.194458 31.99 0.194458C33.275 0.194458 34.3081 0.433814 35.0891 0.912528C35.8954 1.36605 36.5001 1.97074 36.9031 2.7266C37.3316 3.45727 37.6088 4.26351 37.7346 5.14536C37.8858 6.0272 37.9614 6.88384 37.9614 7.71529V20.4138ZM45.9851 20.7917C43.7426 20.7917 41.8278 20.3256 40.2405 19.3934C38.6532 18.4611 37.4311 17.2265 36.5746 15.6896C35.7431 14.1527 35.3274 12.4898 35.3274 10.7009C35.3274 8.7861 35.7431 7.03501 36.5746 5.4477C37.406 3.86039 38.6154 2.58802 40.2027 1.6306C41.79 0.673171 43.7175 0.194458 45.9851 0.194458C48.2276 0.194458 50.1423 0.673171 51.7296 1.6306C53.3169 2.58802 54.5136 3.84778 55.32 5.40991C56.1514 6.97203 56.5671 8.64751 56.5671 10.4364C56.5671 11.1671 56.5167 11.8096 56.416 12.3638H41.7523C41.8529 13.6992 42.3318 14.7196 43.1884 15.4251C44.0703 16.1054 45.0654 16.4455 46.174 16.4455C47.056 16.4455 47.8998 16.2313 48.7062 15.803C49.5125 15.3747 50.0667 14.7952 50.3691 14.0645L55.5089 15.5007C54.728 17.0628 53.5059 18.3352 51.843 19.3178C50.2052 20.3004 48.2527 20.7917 45.9851 20.7917ZM41.6011 8.66012H50.2179C50.0918 7.40034 49.6259 6.40514 48.8196 5.67446C48.0386 4.9186 47.0684 4.54067 45.9095 4.54067C44.7506 4.54067 43.768 4.9186 42.9616 5.67446C42.1807 6.43032 41.7271 7.42555 41.6011 8.66012ZM66.3751 20.7917C64.8885 20.7917 63.5785 20.4768 62.4447 19.8469C61.336 19.1918 60.4794 18.31 59.8747 17.2014V28.4637H53.8278V0.57239H59.0811V3.7848C59.8116 2.65101 60.7313 1.76917 61.84 1.13928C62.9484 0.5094 64.246 0.194458 65.7327 0.194458C67.4963 0.194458 69.0709 0.660572 70.4568 1.5928C71.8676 2.49984 72.9636 3.72182 73.7448 5.25874C74.5509 6.79565 74.9542 8.52155 74.9542 10.4364C74.9542 12.4016 74.5887 14.1653 73.8582 15.7274C73.1274 17.2896 72.107 18.5241 70.7969 19.4312C69.512 20.3382 68.038 20.7917 66.3751 20.7917ZM64.3343 15.6896C65.1909 15.6896 65.9594 15.4503 66.6397 14.9716C67.32 14.4676 67.8491 13.8252 68.227 13.0441C68.6049 12.2379 68.7939 11.356 68.7939 10.3986C68.7939 8.93727 68.3404 7.72789 67.4334 6.77046C66.5514 5.81302 65.4176 5.33432 64.032 5.33432C63.2005 5.33432 62.3942 5.58627 61.6132 6.09018C60.8574 6.56889 60.2778 7.22398 59.8747 8.05543V12.1371C60.2778 13.1449 60.8825 13.9889 61.6888 14.6692C62.5202 15.3495 63.4019 15.6896 64.3343 15.6896ZM71.2747 14.4803C71.2747 13.1701 71.6403 12.0237 72.3707 11.0411C73.1015 10.0585 74.1092 9.28999 75.3942 8.7357C76.6791 8.1562 78.1531 7.86646 79.816 7.86646C80.6223 7.86646 81.416 7.94205 82.1969 8.09322C82.9782 8.2192 83.6585 8.40817 84.2378 8.66012V7.79087C84.2378 5.54847 82.915 4.42729 80.2695 4.42729C79.1611 4.42729 78.1153 4.61625 77.1327 4.99418C76.1754 5.37211 75.155 5.91383 74.0714 6.61929L72.2574 2.76439C74.8778 1.0511 77.75 0.194458 80.8742 0.194458C83.8474 0.194458 86.1528 0.912528 87.7903 2.34867C89.4532 3.75962 90.2847 5.81302 90.2847 8.50894V13.6866C90.2847 14.2913 90.3729 14.7196 90.5492 14.9716C90.7509 15.2235 91.091 15.3621 91.5696 15.3873V20.4138C91.0405 20.5145 90.5619 20.5901 90.1335 20.6405C89.7054 20.6909 89.3274 20.7161 88.9997 20.7161C87.8659 20.7161 86.9967 20.4894 86.392 20.0358C85.8127 19.5823 85.4471 18.965 85.296 18.184L85.1826 17.3147C84.3009 18.4485 83.2427 19.3178 82.008 19.9225C80.7735 20.502 79.5012 20.7917 78.1909 20.7917C76.8808 20.7917 75.6965 20.5145 74.6383 19.9603C73.6055 19.406 72.7865 18.6627 72.1818 17.7305C71.5771 16.773 71.2747 15.6896 71.2747 14.4803ZM83.2929 15.2361C83.923 14.7322 84.2378 14.2157 84.2378 13.6866V11.9103C83.7087 11.7088 83.1294 11.5576 82.4993 11.4568C81.8946 11.3308 81.3404 11.2678 80.8364 11.2678C79.7026 11.2678 78.7705 11.5198 78.0397 12.0237C77.3343 12.5276 76.9815 13.1701 76.9815 13.9512C76.9815 14.6314 77.246 15.2235 77.7751 15.7274C78.3296 16.2061 79.0601 16.4455 79.9671 16.4455C80.5718 16.4455 81.1765 16.3321 81.7812 16.1054C82.3859 15.8786 82.8899 15.5889 83.2929 15.2361ZM96.8962 20.4894C95.1324 20.4894 93.5956 20.0358 92.2855 19.1288C90.9752 18.2218 89.9423 17.0124 89.1865 15.5007C88.4557 13.9889 88.0905 12.3134 88.0905 10.4742C88.0905 8.53413 88.4808 6.79565 89.262 5.25874C90.043 3.69661 91.1263 2.46205 92.5123 1.55501C93.8979 0.647976 95.4979 0.194458 97.312 0.194458C98.7983 0.194458 100.109 0.521998 101.242 1.17708C102.376 1.80696 103.283 2.6888 103.964 3.8226V0.57239H109.217V19.0532C109.217 21.0689 108.725 22.8073 107.743 24.2687C106.785 25.73 105.437 26.8512 103.699 27.6323C101.986 28.4386 99.9953 28.8416 97.7277 28.8416C95.6113 28.8416 93.7845 28.4888 92.2477 27.7834C90.736 27.1032 89.4132 26.1331 88.2794 24.8734L91.5296 21.5854C92.2601 22.4168 93.1671 23.0719 94.2507 23.5506C95.3591 24.0545 96.5183 24.3065 97.7277 24.3065C98.7103 24.3065 99.6047 24.1301 100.411 23.7774C101.242 23.4246 101.91 22.8577 102.414 22.0767C102.918 21.3208 103.17 20.313 103.17 19.0532V17.1258C102.565 18.2344 101.683 19.0784 100.524 19.6579C99.3906 20.2122 98.1812 20.4894 96.8962 20.4894ZM98.9749 15.6896C99.907 15.6896 100.738 15.4377 101.469 14.9338C102.2 14.4047 102.767 13.737 103.17 12.9307V8.77349C102.767 7.74047 102.149 6.90903 101.318 6.27915C100.487 5.64927 99.6047 5.33432 98.6725 5.33432C97.8157 5.33432 97.0474 5.58627 96.3671 6.09018C95.712 6.56889 95.1956 7.21137 94.8176 8.01763C94.4397 8.82389 94.2507 9.69314 94.2507 10.6254C94.2507 12.0867 94.7043 13.2961 95.6113 14.2535C96.5183 15.2109 97.6394 15.6896 98.9749 15.6896ZM117.367 20.7917C115.124 20.7917 113.21 20.3256 111.622 19.3934C110.035 18.4611 108.813 17.2265 107.956 15.6896C107.125 14.1527 106.709 12.4898 106.709 10.7009C106.709 8.7861 107.125 7.03501 107.956 5.4477C108.788 3.86039 109.997 2.58802 111.585 1.6306C113.172 0.673171 115.099 0.194458 117.367 0.194458C119.609 0.194458 121.524 0.673171 123.111 1.6306C124.699 2.58802 125.895 3.84778 126.702 5.40991C127.533 6.97203 127.949 8.64751 127.949 10.4364C127.949 11.1671 127.898 11.8096 127.798 12.3638H113.134C113.235 13.6992 113.713 14.7196 114.57 15.4251C115.452 16.1054 116.447 16.4455 117.556 16.4455C118.437 16.4455 119.282 16.2313 120.088 15.803C120.894 15.3747 121.449 14.7952 121.751 14.0645L126.891 15.5007C126.109 17.0628 124.888 18.3352 123.225 19.3178C121.587 20.3004 119.634 20.7917 117.367 20.7917ZM112.983 8.66012H121.6C121.474 7.40034 121.007 6.40514 120.201 5.67446C119.42 4.9186 118.45 4.54067 117.291 4.54067C116.132 4.54067 115.149 4.9186 114.343 5.67446C113.562 6.43032 113.109 7.42555 112.983 8.66012Z" fill="black"/>
</g>
<defs>
<clipPath id="clip0">
<rect width="128" height="28.9655" fill="white"/>
</clipPath>
</defs>
</svg>
