<svg width="128" height="51" viewBox="0 0 128 51" fill="none" xmlns="http://www.w3.org/2000/svg">
<g clip-path="url(#clip0)">
<path d="M15.8537 26.4857H11.0264L8.73984 39.5447H0.0508118L6.45325 2.55278L19.5122 2.57819C23.6958 2.57819 26.9139 3.56058 29.1666 5.52534C31.4363 7.47318 32.4526 10.1409 32.2154 13.5284C32.0291 16.2045 31.2584 18.4234 29.9035 20.1849C28.5485 21.9295 26.6515 23.3099 24.2124 24.3262L29.1921 39.1128V39.5447H19.9187L15.8537 26.4857ZM12.1952 19.6006L17.2765 19.6514C18.6653 19.6514 19.8679 19.3126 20.8842 18.6351C21.9173 17.9576 22.6541 17.0345 23.0945 15.8658C23.5349 14.6802 23.6619 13.5368 23.4756 12.4359C23.1369 10.5559 21.9343 9.56498 19.8679 9.46335L13.9735 9.43795L12.1952 19.6006ZM38.0244 39.5447H29.6402L34.4167 12.0548H42.8008L38.0244 39.5447ZM35.1535 5.11885C35.1196 3.88239 35.5515 2.8492 36.4492 2.01925C37.3638 1.1893 38.4647 0.774329 39.752 0.774329C41.0563 0.774329 42.1402 1.14695 43.004 1.89222C43.8849 2.63748 44.3421 3.61139 44.376 4.81397C44.4099 6.06735 43.978 7.10902 43.0803 7.93897C42.1826 8.75198 41.0817 9.15847 39.7774 9.15847C38.5071 9.15847 37.4231 8.79432 36.5254 8.066C35.6447 7.32074 35.1873 6.33835 35.1535 5.11885ZM66.8516 25.8251C66.4959 28.7045 65.7423 31.2707 64.5905 33.5233C63.4387 35.7591 62.0075 37.4275 60.2967 38.5284C58.603 39.6124 56.706 40.129 54.6057 40.0782C52.2006 40.0105 50.2527 39.0619 48.7622 37.2326L46.2723 50.1137H37.9136L44.5193 12.0548L52.2428 12.0294L51.811 14.6463C53.6572 12.5121 55.8337 11.4789 58.3404 11.5467C61.0166 11.5806 63.0999 12.5376 64.5905 14.4176C66.098 16.2977 66.9025 18.8638 67.0041 22.1158C67.038 23.166 66.9871 24.4024 66.8516 25.8251ZM58.7215 22.4207C58.6369 19.626 57.6884 18.2032 55.8761 18.1524C54.1146 18.0507 52.6494 18.7706 51.4807 20.312L49.5243 31.2113C50.0495 32.6849 51.2181 33.4386 53.0305 33.4725C55.9946 33.5233 57.8154 30.9742 58.4929 25.8251C58.6453 24.1991 58.7215 23.0643 58.7215 22.4207ZM73.5243 39.5447H65.1402L71.8983 0.520264H80.2825L73.5243 39.5447ZM88.8607 40.0528C86.4048 40.0358 84.2114 39.4599 82.2805 38.3251C80.3665 37.1734 78.9184 35.5812 77.936 33.5487C76.9536 31.4993 76.564 29.2466 76.7673 26.7905L76.8435 26.0792C77.3008 21.5568 78.8676 17.983 81.5437 15.3577C84.2368 12.7154 87.5312 11.445 91.4269 11.5467C93.7811 11.5806 95.7968 12.1819 97.4736 13.3505C99.1504 14.5023 100.378 16.103 101.158 18.1524C101.937 20.1849 102.191 22.4715 101.92 25.0122L101.437 28.4928H85.0753C85.1091 29.9325 85.5156 31.1012 86.2947 31.9989C87.0738 32.8967 88.2087 33.3709 89.6992 33.4217C92.1213 33.4894 94.2978 32.5578 96.2286 30.627L99.7348 35.2763C98.7015 36.75 97.2534 37.9102 95.3903 38.7571C93.5441 39.587 91.52 40.0189 89.3181 40.0528H88.8607ZM90.8933 18.1269C89.7077 18.0931 88.6745 18.4658 87.7938 19.2449C86.9299 20.024 86.1762 21.3282 85.5325 23.1574H93.8912L94.0437 22.4207C94.1454 21.8279 94.1622 21.269 94.0945 20.7438C93.8066 19.0501 92.7395 18.1778 90.8933 18.1269ZM111.565 27.4512L118.679 12.0548H127.901L111.794 43.6605C110.591 46.1504 109.203 47.9457 107.627 49.0467C106.068 50.1646 104.206 50.7235 102.038 50.7235C101.072 50.7235 99.8442 50.5373 98.3536 50.1646L98.9889 44.0416H99.9543C100.987 44.0416 101.894 43.8722 102.673 43.5335C103.452 43.2117 104.104 42.5765 104.629 41.628L105.823 39.3414L101.428 12.0548H110.066L111.565 27.4512Z" fill="black"/>
</g>
<defs>
<clipPath id="clip0">
<rect width="128" height="50.9919" fill="white"/>
</clipPath>
</defs>
</svg>
