<svg width="128" height="81" viewBox="0 0 128 81" fill="none" xmlns="http://www.w3.org/2000/svg">
<g clip-path="url(#clip0)">
<path d="M0.162964 16.8405C0.162964 14.9694 0.479622 13.1414 1.11294 11.3566C1.77505 9.54297 2.72503 7.90211 3.96286 6.43396C5.22951 4.93703 6.76961 3.75676 8.5832 2.89314C10.3968 2.00074 12.4551 1.55454 14.758 1.55454C17.4928 1.55454 19.8389 2.18786 21.7966 3.45449C23.754 4.69234 25.2078 6.29003 26.1578 8.24755L23.092 10.2339C22.4874 8.93844 21.7102 7.91649 20.7602 7.16803C19.8389 6.39078 18.8314 5.84382 17.7376 5.52717C16.6724 5.21051 15.6217 5.05218 14.5853 5.05218C12.8869 5.05218 11.3756 5.39762 10.0513 6.08852C8.75593 6.77941 7.66202 7.70059 6.76961 8.85208C5.87722 10.0036 5.20072 11.299 4.74012 12.7383C4.30831 14.1489 4.09241 15.5739 4.09241 17.0132C4.09241 18.5966 4.35149 20.1222 4.86966 21.5904C5.41662 23.0585 6.16508 24.354 7.11506 25.4767C8.06503 26.5994 9.18773 27.4918 10.4832 28.1539C11.7786 28.8159 13.1892 29.147 14.7149 29.147C15.7799 29.147 16.8739 28.96 17.9966 28.5857C19.1193 28.2114 20.17 27.6357 21.1488 26.8584C22.1275 26.0524 22.9048 25.016 23.4806 23.7494L26.7192 25.5198C26.0858 27.0455 25.107 28.3409 23.7829 29.4061C22.4586 30.4713 20.9761 31.2772 19.3352 31.8242C17.7231 32.3712 16.1254 32.6447 14.5421 32.6447C12.4407 32.6447 10.5119 32.1985 8.75593 31.3061C6.99992 30.3849 5.47419 29.1759 4.17877 27.6789C2.91214 26.1532 1.91898 24.4547 1.1993 22.5836C0.50841 20.6836 0.162964 18.7693 0.162964 16.8405ZM29.2081 25.8653C29.2081 24.426 29.611 23.1881 30.4171 22.1517C31.2519 21.0866 32.3891 20.2661 33.8284 19.6904C35.2677 19.1147 36.9374 18.8268 38.8374 18.8268C39.8449 18.8268 40.91 18.9132 42.0327 19.0859C43.1554 19.2298 44.1486 19.4602 45.0122 19.7768V18.1359C45.0122 16.4087 44.494 15.0557 43.4577 14.0769C42.4214 13.0694 40.9532 12.5656 39.0533 12.5656C37.8154 12.5656 36.6208 12.7959 35.4693 13.2565C34.3466 13.6883 33.1518 14.3216 31.8853 15.1565L30.5035 12.4793C31.9716 11.4717 33.4398 10.7232 34.9079 10.2339C36.3761 9.7157 37.9017 9.45661 39.4851 9.45661C42.3638 9.45661 44.6379 10.2627 46.3076 11.8747C47.9773 13.458 48.8121 15.6746 48.8121 18.5246V28.0675C48.8121 28.96 49.2151 29.4204 50.0212 29.4493V32.3856C49.6469 32.4431 49.3159 32.4863 49.028 32.5151C48.7689 32.544 48.553 32.5583 48.3803 32.5583C47.4878 32.5583 46.8115 32.3136 46.3508 31.8242C45.919 31.3349 45.6743 30.8167 45.6167 30.2697L45.5304 28.8448C44.5516 30.1113 43.2706 31.0902 41.6873 31.781C40.1039 32.4719 38.5351 32.8174 36.9806 32.8174C35.4836 32.8174 34.145 32.5151 32.9648 31.9106C31.7846 31.2772 30.8633 30.4424 30.2012 29.4061C29.5392 28.3409 29.2081 27.1607 29.2081 25.8653ZM43.8895 27.463C44.235 27.06 44.5084 26.6569 44.7099 26.2539C44.9115 25.8221 45.0122 25.4623 45.0122 25.1744V22.3676C43.1698 21.6479 41.2698 21.2881 39.3123 21.2881C37.3836 21.2881 35.8147 21.6768 34.6056 22.454C33.4254 23.2024 32.8352 24.2388 32.8352 25.563C32.8352 26.2828 33.0223 26.988 33.3966 27.6789C33.7996 28.3409 34.3754 28.8879 35.1238 29.3197C35.9011 29.7515 36.851 29.9675 37.9737 29.9675C39.154 29.9675 40.2767 29.7372 41.3418 29.2766C42.407 28.7872 43.2561 28.1827 43.8895 27.463ZM74.449 32.3856H70.6491V19.7768C70.6491 17.3875 70.2748 15.6458 69.5264 14.5519C68.8066 13.4292 67.6984 12.8679 66.2015 12.8679C65.1651 12.8679 64.1288 13.127 63.0924 13.6451C62.0849 14.1633 61.1781 14.8686 60.3721 15.761C59.5948 16.6246 59.0335 17.6321 58.688 18.7836V32.3856H54.8881V9.84524H58.3426V14.6815C59.235 13.0982 60.5159 11.8316 62.1856 10.8816C63.884 9.9316 65.7265 9.45661 67.7128 9.45661C69.4688 9.45661 70.8218 9.87403 71.7718 10.7089C72.7506 11.5149 73.4415 12.6376 73.8444 14.0769C74.2476 15.4876 74.449 17.0996 74.449 18.9132V32.3856ZM78.8898 21.1586C78.8898 19.0284 79.3216 17.0853 80.1852 15.3292C81.0777 13.5444 82.2867 12.1194 83.8124 11.0543C85.3669 9.98917 87.1373 9.45661 89.1236 9.45661C90.9372 9.45661 92.5637 9.9316 94.0031 10.8816C95.4425 11.8316 96.5652 12.983 97.3711 14.336V0.863647H101.171V28.0675C101.171 28.96 101.574 29.4204 102.38 29.4493V32.3856C101.661 32.5008 101.099 32.5583 100.696 32.5583C99.9476 32.5583 99.2856 32.2992 98.7098 31.781C98.1629 31.2629 97.8893 30.6872 97.8893 30.0538V28.1539C96.997 29.5932 95.8023 30.7304 94.3053 31.5651C92.8085 32.3999 91.254 32.8174 89.6418 32.8174C87.5691 32.8174 85.7123 32.2849 84.0715 31.2197C82.4594 30.1258 81.1929 28.7009 80.2716 26.9448C79.3504 25.1601 78.8898 23.2313 78.8898 21.1586ZM97.3711 24.4835V18.0064C97.0257 17.0276 96.4644 16.1496 95.6871 15.3724C94.9098 14.5663 94.0319 13.933 93.0531 13.4724C92.1031 12.983 91.1531 12.7383 90.2031 12.7383C88.735 12.7383 87.4396 13.1414 86.3169 13.9474C85.223 14.7535 84.3594 15.8042 83.726 17.0996C83.1215 18.395 82.8192 19.7625 82.8192 21.2018C82.8192 22.6988 83.1503 24.0805 83.8124 25.3471C84.5033 26.6137 85.4389 27.6357 86.6191 28.4129C87.7995 29.1614 89.1093 29.5356 90.5486 29.5356C91.4699 29.5356 92.4199 29.3197 93.3985 28.8879C94.3773 28.4273 95.241 27.8084 95.9894 27.0312C96.7379 26.2539 97.1984 25.4046 97.3711 24.4835ZM108.551 38.5172C108.925 38.5461 109.299 38.5748 109.674 38.6036C110.048 38.6611 110.336 38.69 110.537 38.69C110.998 38.69 111.401 38.5316 111.746 38.215C112.092 37.8984 112.466 37.2793 112.869 36.3582C113.301 35.4657 113.848 34.1416 114.51 32.3856L104.967 9.84524H108.983L116.583 28.5425L123.448 9.84524H127.205L116.237 38.3013C115.863 39.3088 115.186 40.1869 114.208 40.9354C113.258 41.7126 111.977 42.1012 110.365 42.1012C110.105 42.1012 109.832 42.0869 109.544 42.0581C109.285 42.0292 108.954 41.9717 108.551 41.8853V38.5172ZM32.6375 46.7154C31.918 45.9093 30.8096 45.1752 29.3126 44.5132C27.8158 43.8511 26.1461 43.52 24.3037 43.52C21.9432 43.52 20.2015 43.9662 19.0788 44.8586C17.9561 45.7511 17.3947 46.9745 17.3947 48.529C17.3947 49.6229 17.6827 50.4865 18.2584 51.1198C18.8342 51.7532 19.7122 52.2714 20.8924 52.6743C22.1014 53.0773 23.6273 53.4948 25.4695 53.9266C27.5999 54.3872 29.4422 54.9486 30.9967 55.6106C32.5512 56.2727 33.7459 57.1651 34.5807 58.2878C35.4156 59.3817 35.8329 60.8498 35.8329 62.6923C35.8329 64.6497 35.3436 66.2619 34.3648 67.5285C33.3861 68.7951 32.0475 69.7307 30.349 70.3353C28.6794 70.9398 26.7938 71.2421 24.6923 71.2421C19.9137 71.2421 15.7539 69.8027 12.2131 66.924L14.0699 63.6423C14.7032 64.2756 15.5525 64.9088 16.6175 65.5422C17.7115 66.1756 18.9492 66.7081 20.331 67.1399C21.7416 67.5429 23.2241 67.7444 24.7786 67.7444C26.9665 67.7444 28.6649 67.3558 29.874 66.5785C31.083 65.7725 31.6876 64.6066 31.6876 63.0809C31.6876 61.9294 31.3421 61.0082 30.6512 60.3173C29.9892 59.6264 28.996 59.0508 27.6717 58.5901C26.3476 58.1295 24.7355 57.669 22.8355 57.2083C20.7628 56.6902 19.0213 56.1288 17.6106 55.5243C16.2002 54.8909 15.135 54.0705 14.4153 53.063C13.7244 52.0555 13.379 50.7456 13.379 49.1335C13.379 47.1761 13.8539 45.5207 14.8039 44.1677C15.7539 42.8148 17.0638 41.7928 18.7333 41.1019C20.403 40.411 22.2887 40.0656 24.39 40.0656C26.434 40.0656 28.2908 40.3822 29.9603 41.0156C31.6589 41.6489 33.1557 42.498 34.4511 43.5632L32.6375 46.7154ZM59.9008 70.9398H56.1009V58.331C56.1009 56.0281 55.6835 54.3009 54.8486 53.1493C54.0427 51.9978 52.8768 51.4221 51.351 51.4221C50.3723 51.4221 49.3792 51.6812 48.3715 52.1994C47.3928 52.7175 46.5292 53.4228 45.7807 54.3152C45.0322 55.1788 44.4852 56.1863 44.1398 57.3379V70.9398H40.3399V39.4179H44.1398V53.2357C45.0323 51.6237 46.2413 50.3569 47.767 49.4358C49.3215 48.4858 50.9912 48.0108 52.7759 48.0108C54.5609 48.0108 55.9713 48.4283 57.0077 49.2631C58.044 50.0978 58.7781 51.235 59.2099 52.6743C59.6705 54.085 59.9008 55.6827 59.9008 57.4674V70.9398ZM75.6549 71.3716C73.4095 71.3716 71.4232 70.8391 69.696 69.7739C67.9976 68.6801 66.6734 67.2551 65.7234 65.499C64.7734 63.7143 64.2984 61.7855 64.2984 59.7128C64.2984 57.6113 64.7734 55.6827 65.7234 53.9266C66.7022 52.1418 68.0408 50.7169 69.7392 49.6517C71.4664 48.5578 73.4384 48.0108 75.6549 48.0108C77.9003 48.0108 79.8723 48.5578 81.5707 49.6517C83.2979 50.7169 84.6365 52.1418 85.5865 53.9266C86.5653 55.6827 87.0547 57.6113 87.0547 59.7128C87.0547 61.7855 86.5653 63.7143 85.5865 65.499C84.6365 67.2551 83.3124 68.6801 81.6139 69.7739C79.9155 70.8391 77.9292 71.3716 75.6549 71.3716ZM68.1847 59.756C68.1847 61.3105 68.5158 62.7211 69.1778 63.9877C69.8687 65.2543 70.7755 66.2619 71.8982 67.0103C73.0209 67.7301 74.2732 68.0899 75.6549 68.0899C77.0367 68.0899 78.289 67.7156 79.4117 66.9672C80.5632 66.2188 81.47 65.2111 82.132 63.9445C82.8229 62.6491 83.1684 61.2241 83.1684 59.6696C83.1684 58.1151 82.8229 56.7045 82.132 55.4379C81.47 54.1713 80.5632 53.1637 79.4117 52.4153C78.289 51.6668 77.0367 51.2926 75.6549 51.2926C74.2732 51.2926 73.0209 51.6812 71.8982 52.4584C70.7755 53.2069 69.8687 54.2145 69.1778 55.4811C68.5158 56.7477 68.1847 58.1726 68.1847 59.756ZM103.793 71.3716C101.951 71.3716 100.31 70.9109 98.8704 69.9898C97.431 69.0687 96.2939 67.9028 95.4592 66.4922V80.1373H91.6593V48.3995H95.0274V52.6312C95.9197 51.2494 97.0855 50.141 98.525 49.3062C99.9643 48.4426 101.533 48.0108 103.232 48.0108C104.786 48.0108 106.211 48.3274 107.507 48.9608C108.802 49.5942 109.925 50.4578 110.875 51.5517C111.825 52.6455 112.559 53.8977 113.077 55.3084C113.624 56.6902 113.897 58.144 113.897 59.6696C113.897 61.7998 113.466 63.7575 112.602 65.5422C111.767 67.327 110.587 68.7519 109.061 69.8171C107.535 70.8534 105.779 71.3716 103.793 71.3716ZM102.627 68.0899C104.124 68.0899 105.419 67.6869 106.513 66.8808C107.607 66.0747 108.457 65.024 109.061 63.7286C109.694 62.4332 110.011 61.0802 110.011 59.6696C110.011 58.144 109.666 56.7477 108.975 55.4811C108.313 54.2145 107.391 53.2069 106.211 52.4584C105.06 51.6812 103.75 51.2926 102.282 51.2926C101.389 51.2926 100.439 51.5228 99.4318 51.9835C98.453 52.4441 97.5894 53.063 96.841 53.8402C96.1212 54.5886 95.6606 55.4236 95.4592 56.3447V62.7786C96.0924 64.2756 97.0569 65.5422 98.3523 66.5785C99.6764 67.586 101.101 68.0899 102.627 68.0899Z" fill="black"/>
</g>
<defs>
<clipPath id="clip0">
<rect width="128" height="80.1928" fill="white"/>
</clipPath>
</defs>
</svg>
