<svg width="163" height="129" viewBox="0 0 163 129" fill="none" xmlns="http://www.w3.org/2000/svg">
<path d="M81.9364 109C61.0182 109 44 91.9817 44 71.0636V19H62.6661V71.0636C62.6661 81.6893 71.3108 90.3339 81.9364 90.3339C92.5621 90.3339 101.207 81.6893 101.207 71.0636V19H119.873V71.0636C119.873 91.9817 102.855 109 81.9364 109Z" fill="black"/>
<path d="M89.5278 53.7639C89.5278 50.3273 87.295 47.4124 84.2009 46.3903C83.4344 46.1371 82.6152 46 81.7639 46C80.858 46 79.9884 46.1552 79.1801 46.4403C76.1625 47.505 74 50.3819 74 53.7639C74 56.2108 75.132 58.3932 76.9007 59.8162C77.5506 60.339 77.8918 61.1552 77.8191 61.9861L76.097 81.656C76.017 82.5689 76.7365 83.3541 77.6528 83.3541H85.6093C86.5235 83.3541 87.2422 82.5724 87.1657 81.6614L85.5236 62.1256C85.4521 61.2762 85.8123 60.4445 86.4884 59.9253C88.3365 58.5061 89.5278 56.2742 89.5278 53.7639Z" fill="black"/>
</svg>
