<svg width="48" height="48" viewBox="0 0 48 48" fill="none" xmlns="http://www.w3.org/2000/svg">
<path d="M12.72 37.56L13.22 42L16.46 38.92L22 23.72C20.64 23.38 19.44 22.7 18.46 21.76L12.72 37.56Z" fill="black"/>
<path d="M29.54 21.76C28.56 22.7 27.34 23.38 26 23.72L31.54 38.92L34.78 42L35.3 37.56L29.54 21.76Z" fill="black"/>
<path d="M30 16C30 13.4 28.32 11.2 26 10.36V6H22V10.36C19.68 11.2 18 13.4 18 16C18 19.32 20.68 22 24 22C27.32 22 30 19.32 30 16ZM24 18C22.9 18 22 17.1 22 16C22 14.9 22.9 14 24 14C25.1 14 26 14.9 26 16C26 17.1 25.1 18 24 18Z" fill="black"/>
</svg>
