<svg width="47" height="48" viewBox="0 0 47 48" fill="none" xmlns="http://www.w3.org/2000/svg">
<g clip-path="url(#clip0)">
<path fill-rule="evenodd" clip-rule="evenodd" d="M29.5363 0.109471L2.89664 2.06976C0.74864 2.25568 0 3.656 0 5.33472V34.4506C0 35.7587 0.46656 36.8768 1.5888 38.3712L7.85104 46.4901C8.87968 47.7974 9.8144 48.0771 11.7786 47.9835L42.715 46.1168C45.3315 45.931 46.08 44.717 46.08 42.664V9.908C46.08 8.84672 45.6598 8.54016 44.4211 7.63648C44.353 7.58688 44.2822 7.53536 44.2091 7.48176L35.7054 1.50941C33.6493 0.0168953 32.8077 -0.170913 29.5363 0.109471ZM12.48 9.37072C9.95424 9.54112 9.38032 9.57984 7.94592 8.41536L4.2984 5.52256C3.9264 5.14848 4.11296 4.68192 5.04704 4.58928L30.6581 2.72272C32.8072 2.53568 33.9286 3.28352 34.7702 3.93632L39.163 7.1096C39.3501 7.20256 39.8166 7.76176 39.2555 7.76176L12.8061 9.3488L12.48 9.37072ZM9.53392 42.3835V14.5749C9.53392 13.3619 9.90784 12.8016 11.0288 12.7074L41.4051 10.9349C42.4355 10.8416 42.9021 11.4954 42.9021 12.7074V40.3296C42.9021 41.5437 42.7146 42.5715 41.0315 42.664L11.9637 44.3448C10.2814 44.4373 9.53392 43.8781 9.53392 42.3835ZM38.2298 16.0666C38.4162 16.9074 38.2298 17.7472 37.3869 17.8418L35.9862 18.1206V38.6507C34.7702 39.3038 33.649 39.6773 32.7146 39.6773C31.2186 39.6773 30.8438 39.2102 29.7234 37.8112L20.5621 23.44V37.3446L23.461 37.9982C23.461 37.9982 23.461 39.6773 21.1222 39.6773L14.6746 40.051C14.4872 39.6773 14.6746 38.7448 15.3285 38.5579L17.011 38.092V19.7075L14.6749 19.5205C14.4875 18.6798 14.9541 17.4677 16.2637 17.3736L23.1806 16.9077L32.7146 31.4659V18.5872L30.2838 18.3085C30.0971 17.2806 30.8438 16.5344 31.7787 16.4418L38.2298 16.0666Z" fill="black"/>
</g>
<defs>
<clipPath id="clip0">
<rect width="46.4" height="48" fill="white"/>
</clipPath>
</defs>
</svg>
